<?xml version="1.0" encoding="UTF-8" standalone="no"?>
<!-- Created with Inkscape (http://www.inkscape.org/) -->

<svg
   xmlns:dc="http://purl.org/dc/elements/1.1/"
   xmlns:cc="http://creativecommons.org/ns#"
   xmlns:rdf="http://www.w3.org/1999/02/22-rdf-syntax-ns#"
   xmlns:svg="http://www.w3.org/2000/svg"
   xmlns="http://www.w3.org/2000/svg"
   xmlns:sodipodi="http://sodipodi.sourceforge.net/DTD/sodipodi-0.dtd"
   xmlns:inkscape="http://www.inkscape.org/namespaces/inkscape"
   width="210mm"
   height="297mm"
   viewBox="0 0 210 297"
   version="1.1"
   id="svg45"
   inkscape:version="0.92.5 (2060ec1f9f, 2020-04-08)"
   sodipodi:docname="logo.svg">
  <defs
     id="defs39" />
  <sodipodi:namedview
     id="base"
     pagecolor="#ffffff"
     bordercolor="#666666"
     borderopacity="1.0"
     inkscape:pageopacity="0.0"
     inkscape:pageshadow="2"
     inkscape:zoom="0.35"
     inkscape:cx="400"
     inkscape:cy="560"
     inkscape:document-units="mm"
     inkscape:current-layer="layer1"
     showgrid="false"
     inkscape:window-width="1600"
     inkscape:window-height="837"
     inkscape:window-x="-8"
     inkscape:window-y="-8"
     inkscape:window-maximized="1" />
  <metadata
     id="metadata42">
    <rdf:RDF>
      <cc:Work
         rdf:about="">
        <dc:format>image/svg+xml</dc:format>
        <dc:type
           rdf:resource="http://purl.org/dc/dcmitype/StillImage" />
        <dc:title></dc:title>
      </cc:Work>
    </rdf:RDF>
  </metadata>
  <g
     inkscape:label="Calque 1"
     inkscape:groupmode="layer"
     id="layer1">
    <g
       id="g58"
       transform="translate(12.095238,2.2678571)">
      <path
         style="fill:#fbfbfc;stroke-width:0.26458335"
         d="m 61.062057,147.32143 v -39.02604 h 37.967708 37.967705 v 39.02604 39.02605 H 99.029765 61.062057 Z"
         id="path74"
         inkscape:connector-curvature="0" />
      <path
         style="fill:#f6aeb1;stroke-width:0.26458335"
         d="m 64.888717,182.57815 c -0.06943,-0.18244 -0.09563,-16.46469 -0.05822,-36.18276 l 0.06802,-35.85104 h 34.528126 34.528127 v 36.11562 36.11563 l -34.469906,0.0671 c -27.436577,0.0534 -34.495663,-5.3e-4 -34.596145,-0.26458 z M 130.77977,146.52768 V 113.45477 H 99.162057 67.544349 l -0.06807,32.80833 c -0.03744,18.04458 -0.01122,32.95765 0.05826,33.14014 0.100498,0.26398 6.577665,0.31806 31.685775,0.26458 l 31.559456,-0.0672 z m -61.462713,24.68563 c -0.452169,-0.45217 -0.452169,-13.99408 0,-14.44625 0.460904,-0.46091 60.022843,-0.46091 60.483753,0 0.45216,0.45217 0.45216,13.99408 0,14.44625 -0.46091,0.4609 -60.022849,0.4609 -60.483753,0 z m 15.822083,-4.84188 c 0.131531,-1.3153 0.138107,-1.32339 1.142944,-1.40613 1.3529,-0.1114 1.767473,0.29201 1.767473,1.71988 0,1.16625 0.0064,1.17437 0.859896,1.09208 l 0.859896,-0.0829 v -3.30729 -3.30729 l -0.859896,-0.0829 c -0.853498,-0.0823 -0.859896,-0.0742 -0.859896,1.09208 0,1.42787 -0.414573,1.83128 -1.767473,1.71988 -1.004837,-0.0827 -1.011413,-0.0908 -1.142944,-1.40614 -0.131044,-1.31044 -0.141645,-1.32369 -1.124479,-1.40503 l -0.992187,-0.0821 v 3.47153 3.47153 l 0.992187,-0.0821 c 0.982834,-0.0813 0.993435,-0.0946 1.124479,-1.40504 z m 12.964584,0.92605 c 0,-0.47852 -0.17639,-0.52917 -1.842775,-0.52917 -1.571985,0 -1.884389,-0.0778 -2.125975,-0.52917 -0.201213,-0.37597 -0.201213,-0.68236 0,-1.05833 0.238368,-0.4454 0.55399,-0.52917 1.993683,-0.52917 1.639636,0 1.710483,-0.0269 1.710483,-0.64937 0,-0.61757 -0.08744,-0.6532 -1.785937,-0.7276 -1.376341,-0.0603 -1.785938,-0.16926 -1.785938,-0.47511 0,-0.30585 0.409597,-0.41482 1.785938,-0.47511 1.705163,-0.0747 1.785937,-0.108 1.785937,-0.73627 v -0.65804 l -2.976562,0.0748 -2.976563,0.0748 -0.07528,3.02653 c -0.0414,1.66459 -0.01537,3.18264 0.05784,3.37344 0.09916,0.2584 0.911516,0.3469 3.184134,0.3469 2.874621,0 3.051011,-0.0306 3.051011,-0.52916 z m 3.704166,-2.91042 v -3.43958 h -0.79375 -0.79375 v 3.43958 3.43958 h 0.79375 0.79375 z m 7.74741,3.19697 c 1.26044,-0.47922 1.94346,-3.25691 1.17452,-4.77653 -0.18187,-0.35944 -0.73351,-0.92498 -1.22585,-1.25677 -0.75433,-0.50835 -1.24283,-0.60325 -3.105,-0.60325 h -2.20983 v 3.43958 3.43958 h 2.36403 c 1.30021,0 2.65117,-0.10917 3.00213,-0.24261 z m -2.96574,-1.1895 c -0.18576,-0.22383 -0.27836,-1.03536 -0.23083,-2.02301 0.0882,-1.83188 0.45895,-2.29565 1.60536,-2.00792 1.29631,0.32536 1.65279,3.5009 0.46439,4.13691 -0.70454,0.37706 -1.47488,0.33266 -1.83892,-0.10598 z m 8.18291,-2.00747 v -3.43958 h -0.92604 -0.92604 v 3.43958 3.43958 h 0.92604 0.92604 z M 72.109699,154.26675 c -0.573048,-0.61847 -1.537024,-1.95792 -2.142169,-2.97657 -0.988802,-1.66445 -1.100265,-2.02687 -1.100265,-3.57744 0,-1.42888 0.155726,-2.04264 0.906271,-3.57187 1.01318,-2.06435 2.625155,-4.53116 3.44693,-5.27486 0.297875,-0.26957 0.541591,-0.63201 0.541591,-0.80541 0,-0.17341 0.386953,-0.73012 0.859896,-1.23715 0.472943,-0.50702 1.529437,-1.68615 2.347764,-2.62027 2.068833,-2.36159 4.055763,-4.59134 4.636821,-5.20348 0.269442,-0.28385 1.069964,-1.15915 1.778938,-1.9451 0.708974,-0.78595 1.95913,-2.15822 2.778125,-3.04948 0.818994,-0.89126 1.632207,-1.78423 1.807139,-1.98438 0.17493,-0.20014 0.472586,-0.49648 0.661459,-0.65854 0.18887,-0.16206 0.81965,-0.84569 1.401733,-1.51919 1.294974,-1.49834 3.561202,-3.8747 3.695126,-3.8747 0.403363,0 0.935082,0.38334 0.935082,0.67415 0,0.68312 0.561396,0.68699 1.448988,0.01 0.493327,-0.37628 1.059681,-0.68414 1.258568,-0.68414 0.508579,0 0.996611,0.54715 0.996611,1.11735 0,0.44762 0.04548,0.45255 0.631656,0.0685 0.574688,-0.37655 0.670139,-0.3754 1.058337,0.0128 0.71566,0.71567 0.45637,1.41396 -1.198384,3.22724 -0.561427,0.61521 -1.020776,1.23226 -1.020776,1.37123 0,0.13897 -0.232034,0.32631 -0.515633,0.41632 -0.283596,0.09 -0.584906,0.38192 -0.669573,0.64868 -0.08467,0.26677 -0.862161,1.24295 -1.727758,2.16928 -0.865598,0.92634 -1.576319,1.76895 -1.579383,1.87247 -0.0031,0.10351 -0.452054,0.64755 -0.997757,1.20896 -0.545703,0.56141 -1.349375,1.47143 -1.785937,2.02225 -0.436563,0.55082 -1.156661,1.43554 -1.600221,1.96603 -1.502165,1.79659 -3.559154,4.47829 -3.559154,4.64008 0,0.0885 7.06964,0.16092 15.710316,0.16092 14.01147,0 15.74791,0.0453 16.05809,0.41905 0.25235,0.30407 0.27149,0.54003 0.0698,0.8599 -0.25314,0.40139 -1.76713,0.45295 -16.91799,0.57612 l -16.639978,0.13528 16.434628,0.0632 c 16.35228,0.0628 16.43825,0.066 17.1554,0.63011 0.54414,0.42802 0.68917,0.73217 0.59187,1.24118 -0.0709,0.37083 0.0425,0.93572 0.25186,1.25533 0.33524,0.51163 0.32975,0.63211 -0.0459,1.00778 -0.38419,0.38419 -2.27565,0.42779 -18.994758,0.43787 l -18.56808,0.0112 -0.595147,0.93294 c -0.72631,1.13855 -1.051576,3.98661 -0.63121,5.52695 0.158853,0.58208 0.618832,1.41246 1.022174,1.84528 1.367205,1.46712 2.180449,2.87277 1.874992,3.24083 -0.400327,0.48236 -1.10106,0.4177 -1.84899,-0.17062 -0.637649,-0.50158 -0.650726,-0.50158 -0.963965,0 -0.177381,0.28403 -0.613178,0.50847 -0.987303,0.50847 -0.968139,0 -2.682162,-0.94882 -3.224494,-1.78497 -0.25679,-0.39591 -0.658104,-0.91301 -0.89181,-1.14912 -0.233707,-0.23611 -0.756157,-1.10631 -1.161002,-1.93378 -0.650499,-1.32958 -0.716373,-1.69306 -0.566571,-3.12629 0.09323,-0.89198 0.407322,-2.02485 0.697981,-2.51747 0.290658,-0.49263 0.52847,-1.04437 0.52847,-1.22608 0,-0.37579 2.495372,-4.29597 2.826228,-4.43995 0.119065,-0.0518 0.545592,-0.60023 0.947838,-1.21869 0.402248,-0.61846 0.848732,-1.12448 0.992188,-1.12448 0.143456,0 0.260829,-0.18428 0.260829,-0.40951 0,-0.22523 0.278349,-0.67171 0.618554,-0.99219 0.340204,-0.32047 1.37345,-1.47564 2.296102,-2.56705 1.548211,-1.83138 3.367914,-3.89453 5.302376,-6.01175 0.775158,-0.84839 0.989511,-1.39658 0.54609,-1.39658 -0.12799,0 -0.671355,0.5353 -1.207475,1.18957 -0.536121,0.65426 -1.67747,1.93419 -2.536332,2.84427 -1.595792,1.69097 -2.82518,3.0475 -4.819382,5.31783 -0.619286,0.70503 -1.496949,1.65753 -1.950363,2.11667 -0.453414,0.45913 -1.139517,1.3408 -1.524673,1.95926 -0.385157,0.61847 -0.817854,1.12448 -0.961549,1.12448 -0.143695,0 -0.261264,0.16184 -0.261264,0.35964 0,0.1978 -0.415563,0.88241 -0.923474,1.52136 -0.50791,0.63894 -0.924629,1.27437 -0.926042,1.41207 -0.0014,0.1377 -0.299071,0.67822 -0.661464,1.20115 -1.057149,1.52547 -1.221269,4.70032 -0.291062,5.63053 0.193695,0.19369 0.548683,0.73218 0.788863,1.19663 0.24018,0.46446 0.727226,1.03484 1.082326,1.26751 0.355099,0.23267 0.725856,0.68027 0.823905,0.99468 0.09805,0.3144 0.298634,0.64892 0.445746,0.74338 0.490938,0.3152 -0.03948,1.01888 -0.768012,1.01888 -0.495946,0 -1.024939,-0.33946 -1.752311,-1.12447 z m 5.201877,-3.79602 c -0.69476,-2.04636 -0.410673,-4.29857 0.847789,-6.72117 1.066579,-2.05322 2.379514,-4.08884 3.869436,-5.99931 3.65699,-4.68922 4.644107,-6.16523 3.242631,-4.84861 -0.363802,0.34178 -0.661458,0.74848 -0.661458,0.90378 0,0.15531 -0.423175,0.7001 -0.940389,1.21065 -0.517214,0.51056 -1.528578,1.64265 -2.247476,2.51578 -0.718898,0.87312 -1.459143,1.76865 -1.644988,1.99006 -1.039629,1.23858 -3.951452,5.87134 -4.170615,6.63552 -0.387645,1.35163 -0.309228,2.95245 0.180503,3.68482 0.583812,0.87306 1.749332,2.12747 1.867197,2.0096 0.05185,-0.0518 -0.102336,-0.67335 -0.34263,-1.38112 z m 5.385681,-9.15203 c -0.163532,-0.4906 -0.733117,-0.57197 -0.733117,-0.10473 0,0.23041 0.188516,0.41892 0.418924,0.41892 0.230408,0 0.371795,-0.14138 0.314193,-0.31419 z m 4.563857,-9.87866 c 0.184076,-0.2218 0.261062,-0.47689 0.171082,-0.56687 -0.192164,-0.19217 -0.970139,0.39961 -0.970139,0.73795 0,0.36445 0.431231,0.27212 0.799057,-0.17108 z m 2.75349,-7.99218 c 0.764707,-0.9088 0.831951,-1.12955 0.344078,-1.12955 -0.185187,0 -0.565547,0.42493 -0.845241,0.94429 -0.279694,0.51936 -0.723487,1.05933 -0.986208,1.19993 -0.262723,0.14061 -0.477676,0.37916 -0.477676,0.53012 0,0.3528 1.088091,-0.50259 1.965047,-1.54479 z m 2.268286,-2.45247 c 0.602221,-0.84574 0.351915,-1.10803 -0.315624,-0.33073 -0.613034,0.71384 -0.79992,1.12448 -0.511757,1.12448 0.144201,0 0.516523,-0.35719 0.827381,-0.79375 z m 2.193632,-2.65035 0.579003,-0.92152 -0.842512,0.66145 c -0.463381,0.36381 -0.849099,0.82021 -0.85715,1.01424 -0.02416,0.58224 0.504524,0.22645 1.120659,-0.75417 z m 21.266088,36.07605 c -0.37536,-0.37537 -0.13671,-1.30267 0.88195,-3.42689 0.58208,-1.21382 1.05912,-2.35817 1.06007,-2.54299 0.001,-0.18481 0.2383,-0.69321 0.52743,-1.12978 0.46463,-0.70158 0.52588,-1.24687 0.52742,-4.69598 0.002,-3.75279 -0.0337,-4.00935 -0.9243,-6.69944 -0.50932,-1.53847 -0.92604,-2.97036 -0.92604,-3.18198 0,-0.21163 -0.24885,-1.06641 -0.553,-1.89952 -0.86033,-2.35653 -1.56498,-5.17394 -1.41499,-5.65749 0.15889,-0.51219 0.70911,-0.77803 1.09517,-0.52913 0.43086,0.27779 1.13439,1.80489 1.39214,3.02185 0.13057,0.61647 0.55543,1.9543 0.94413,2.97294 0.3887,1.01865 0.80801,2.4474 0.9318,3.175 0.12379,0.72761 0.40504,1.81796 0.625,2.42301 0.95684,2.632 1.24571,7.6577 0.576,10.02089 -0.56861,2.00643 -1.22329,3.84141 -1.81583,5.08954 -0.29487,0.6211 -0.4589,1.20649 -0.36452,1.30087 0.0944,0.0944 0.2092,0.12199 0.25515,0.0614 1.18476,-1.56327 3.21374,-5.11654 3.64328,-6.38033 0.46506,-1.36832 0.54021,-2.04708 0.41893,-3.78408 -0.16549,-2.37025 -0.74726,-5.15906 -1.49025,-7.14375 -0.27239,-0.7276 -0.70451,-2.09682 -0.96027,-3.04271 -0.25576,-0.94588 -0.68228,-2.16153 -0.94783,-2.70143 -0.26556,-0.53991 -0.48283,-1.33656 -0.48283,-1.77033 0,-0.43377 -0.11582,-0.86026 -0.25739,-0.94775 -0.39091,-0.2416 -0.86059,-2.24429 -0.6878,-2.93276 0.084,-0.33456 0.39052,-0.68378 0.68122,-0.77605 1.06143,-0.33688 1.53067,0.0906 2.1192,1.93071 0.312,0.97551 0.73204,2.13084 0.93341,2.56741 0.57153,1.23899 2.25579,6.46956 2.5559,7.9375 0.14875,0.7276 0.43311,1.79916 0.63191,2.38125 1.01076,2.95949 1.04956,7.15091 0.0837,9.04531 -0.27716,0.54365 -0.50394,1.18479 -0.50394,1.42475 0,0.23997 -0.27469,0.84108 -0.61042,1.33582 -0.81863,1.20631 -1.50897,2.61391 -1.28196,2.61391 0.30814,0 3.47988,-3.38889 3.47988,-3.71813 0,-0.0933 0.232,-0.43715 0.51556,-0.76409 0.86096,-0.9927 1.18808,-3.24904 0.84618,-5.83653 -0.16344,-1.23693 -0.48567,-2.9038 -0.71607,-3.70417 -0.23039,-0.80036 -0.57821,-2.11005 -0.77293,-2.91042 -0.19473,-0.80036 -0.722,-2.49678 -1.17172,-3.76981 -0.44973,-1.27304 -0.81768,-2.58449 -0.81768,-2.91434 0,-0.32985 -0.22149,-1.01468 -0.49219,-1.52185 -0.63353,-1.18695 -1.41487,-4.30746 -1.21133,-4.83786 0.32147,-0.83774 1.50182,-0.81616 1.83735,0.0336 0.0961,0.24341 0.27252,0.97835 0.39201,1.63319 0.11948,0.65484 0.5854,2.14313 1.03537,3.30729 0.44996,1.16417 0.81855,2.32885 0.81908,2.58819 5.3e-4,0.25933 0.18995,0.91418 0.42095,1.45521 0.23099,0.54103 0.71217,2.11478 1.06927,3.49723 0.35711,1.38245 0.90418,3.34698 1.21572,4.36562 0.41022,1.34127 0.57059,2.58183 0.58149,4.49792 0.0145,2.54199 -0.0206,2.70814 -0.89324,4.23333 -1.28629,2.24818 -2.55249,3.89418 -3.46412,4.50317 -0.43135,0.28815 -0.85118,0.7324 -0.93295,0.98722 -0.19119,0.5958 -1.01379,1.03569 -1.55115,0.82948 -0.23008,-0.0883 -0.49218,-0.45478 -0.58245,-0.81442 l -0.16411,-0.6539 -0.75867,0.83063 c -0.65625,0.71851 -0.90917,0.81965 -1.87358,0.74923 -0.92942,-0.0679 -1.13979,-0.1878 -1.26449,-0.72093 l -0.14959,-0.63952 -0.46237,0.70567 c -0.43613,0.66561 -1.20537,0.9206 -1.5967,0.52928 z"
         id="path72"
         inkscape:connector-curvature="0" />
      <path
         style="fill:#9da2e4;stroke-width:0.26458335"
         d="m 65.1533,182.31357 c -0.06944,-0.18244 -0.09564,-16.34563 -0.05822,-35.91818 l 0.06802,-35.58646 h 34.263542 34.263538 v 35.85104 35.85105 l -34.205314,0.0671 c -27.224899,0.0534 -34.231082,-5.3e-4 -34.331565,-0.26459 z m 65.89105,-35.78589 v -33.3375 H 99.162057 67.279765 l -0.06806,33.07292 c -0.03743,18.1901 -0.01122,33.22223 0.05825,33.40471 0.100496,0.26399 6.630564,0.31806 31.950352,0.26459 l 31.824043,-0.0672 z m -61.727293,24.68563 c -0.452169,-0.45217 -0.452169,-13.99408 0,-14.44625 0.460904,-0.46091 60.022843,-0.46091 60.483753,0 0.45216,0.45217 0.45216,13.99408 0,14.44625 -0.46091,0.4609 -60.022849,0.4609 -60.483753,0 z m 15.822083,-4.84188 c 0.131531,-1.3153 0.138107,-1.32339 1.142944,-1.40613 1.3529,-0.1114 1.767473,0.29201 1.767473,1.71988 0,1.16625 0.0064,1.17437 0.859896,1.09208 l 0.859896,-0.0829 v -3.30729 -3.30729 l -0.859896,-0.0829 c -0.853498,-0.0823 -0.859896,-0.0742 -0.859896,1.09208 0,1.42787 -0.414573,1.83128 -1.767473,1.71988 -1.004837,-0.0827 -1.011413,-0.0908 -1.142944,-1.40614 -0.131044,-1.31044 -0.141645,-1.32369 -1.124479,-1.40503 l -0.992187,-0.0821 v 3.47153 3.47153 l 0.992187,-0.0821 c 0.982834,-0.0813 0.993435,-0.0946 1.124479,-1.40504 z m 12.964584,0.92605 c 0,-0.47852 -0.17639,-0.52917 -1.842775,-0.52917 -1.571985,0 -1.884389,-0.0778 -2.125975,-0.52917 -0.201213,-0.37597 -0.201213,-0.68236 0,-1.05833 0.238368,-0.4454 0.55399,-0.52917 1.993683,-0.52917 1.639636,0 1.710483,-0.0269 1.710483,-0.64937 0,-0.61757 -0.08744,-0.6532 -1.785937,-0.7276 -1.376341,-0.0603 -1.785938,-0.16926 -1.785938,-0.47511 0,-0.30585 0.409597,-0.41482 1.785938,-0.47511 1.705163,-0.0747 1.785937,-0.108 1.785937,-0.73627 v -0.65804 l -2.976562,0.0748 -2.976563,0.0748 -0.07528,3.02653 c -0.0414,1.66459 -0.01537,3.18264 0.05784,3.37344 0.09916,0.2584 0.911516,0.3469 3.184134,0.3469 2.874621,0 3.051011,-0.0306 3.051011,-0.52916 z m 3.704166,-2.91042 v -3.43958 h -0.79375 -0.79375 v 3.43958 3.43958 h 0.79375 0.79375 z m 7.80078,3.17668 c 1.2457,-0.47361 1.8948,-3.22731 1.12115,-4.75624 -0.18187,-0.35944 -0.73351,-0.92498 -1.22585,-1.25677 -0.75433,-0.50835 -1.24283,-0.60325 -3.105,-0.60325 h -2.20983 v 3.43958 3.43958 h 2.36403 c 1.30021,0 2.67519,-0.1183 3.0555,-0.2629 z m -3.01911,-1.16921 c -0.18576,-0.22383 -0.27836,-1.03536 -0.23083,-2.02301 0.0882,-1.83188 0.45895,-2.29565 1.60536,-2.00792 1.29631,0.32536 1.65279,3.5009 0.46439,4.13691 -0.70454,0.37706 -1.47488,0.33266 -1.83892,-0.10598 z m 8.18291,-2.00747 v -3.43958 h -0.92604 -0.92604 v 3.43958 3.43958 h 0.92604 0.92604 z M 72.109699,154.26675 c -0.573048,-0.61847 -1.537024,-1.95792 -2.142169,-2.97657 -0.988802,-1.66445 -1.100265,-2.02687 -1.100265,-3.57744 0,-1.42888 0.155726,-2.04264 0.906271,-3.57187 1.01318,-2.06435 2.625155,-4.53116 3.44693,-5.27486 0.297875,-0.26957 0.541591,-0.63201 0.541591,-0.80541 0,-0.17341 0.386953,-0.73012 0.859896,-1.23715 0.472943,-0.50702 1.529437,-1.68615 2.347764,-2.62027 2.068833,-2.36159 4.055763,-4.59134 4.636821,-5.20348 0.269442,-0.28385 1.069964,-1.15915 1.778938,-1.9451 0.708974,-0.78595 1.95913,-2.15822 2.778125,-3.04948 0.818994,-0.89126 1.632207,-1.78423 1.807139,-1.98438 0.17493,-0.20014 0.472586,-0.49648 0.661459,-0.65854 0.18887,-0.16206 0.81965,-0.84569 1.401733,-1.51919 1.294974,-1.49834 3.561202,-3.8747 3.695126,-3.8747 0.403363,0 0.935082,0.38334 0.935082,0.67415 0,0.68312 0.561396,0.68699 1.448988,0.01 0.493327,-0.37628 1.059681,-0.68414 1.258568,-0.68414 0.508579,0 0.996611,0.54715 0.996611,1.11735 0,0.44762 0.04548,0.45255 0.631656,0.0685 0.574688,-0.37655 0.670139,-0.3754 1.058337,0.0128 0.71566,0.71567 0.45637,1.41396 -1.198384,3.22724 -0.561427,0.61521 -1.020776,1.23226 -1.020776,1.37123 0,0.13897 -0.232034,0.32631 -0.515633,0.41632 -0.283596,0.09 -0.584906,0.38192 -0.669573,0.64868 -0.08467,0.26677 -0.862161,1.24295 -1.727758,2.16928 -0.865598,0.92634 -1.576319,1.76895 -1.579383,1.87247 -0.0031,0.10351 -0.452054,0.64755 -0.997757,1.20896 -0.545703,0.56141 -1.349375,1.47143 -1.785937,2.02225 -0.436563,0.55082 -1.156661,1.43554 -1.600221,1.96603 -1.502165,1.79659 -3.559154,4.47829 -3.559154,4.64008 0,0.0885 7.06964,0.16092 15.710316,0.16092 14.01147,0 15.74791,0.0453 16.05809,0.41905 0.25235,0.30407 0.27149,0.54003 0.0698,0.8599 -0.25314,0.40139 -1.76713,0.45295 -16.91799,0.57612 l -16.639978,0.13528 16.434628,0.0632 c 16.35228,0.0628 16.43825,0.066 17.1554,0.63011 0.54414,0.42802 0.68917,0.73217 0.59187,1.24118 -0.0709,0.37083 0.0425,0.93572 0.25186,1.25533 0.33524,0.51163 0.32975,0.63211 -0.0459,1.00778 -0.38419,0.38419 -2.27565,0.42779 -18.994758,0.43787 l -18.56808,0.0112 -0.595147,0.93294 c -0.72631,1.13855 -1.051576,3.98661 -0.63121,5.52695 0.158853,0.58208 0.618832,1.41246 1.022174,1.84528 1.367205,1.46712 2.180449,2.87277 1.874992,3.24083 -0.400327,0.48236 -1.10106,0.4177 -1.84899,-0.17062 -0.637649,-0.50158 -0.650726,-0.50158 -0.963965,0 -0.177381,0.28403 -0.613178,0.50847 -0.987303,0.50847 -0.968139,0 -2.682162,-0.94882 -3.224494,-1.78497 -0.25679,-0.39591 -0.658104,-0.91301 -0.89181,-1.14912 -0.233707,-0.23611 -0.756157,-1.10631 -1.161002,-1.93378 -0.650499,-1.32958 -0.716373,-1.69306 -0.566571,-3.12629 0.09323,-0.89198 0.407322,-2.02485 0.697981,-2.51747 0.290658,-0.49263 0.52847,-1.04437 0.52847,-1.22608 0,-0.37579 2.495372,-4.29597 2.826228,-4.43995 0.119065,-0.0518 0.545592,-0.60023 0.947838,-1.21869 0.402248,-0.61846 0.848732,-1.12448 0.992188,-1.12448 0.143456,0 0.260829,-0.18428 0.260829,-0.40951 0,-0.22523 0.278349,-0.67171 0.618554,-0.99219 0.340204,-0.32047 1.37345,-1.47564 2.296102,-2.56705 1.548211,-1.83138 3.367914,-3.89453 5.302376,-6.01175 0.775158,-0.84839 0.989511,-1.39658 0.54609,-1.39658 -0.12799,0 -0.671355,0.5353 -1.207475,1.18957 -0.536121,0.65426 -1.67747,1.93419 -2.536332,2.84427 -1.595792,1.69097 -2.82518,3.0475 -4.819382,5.31783 -0.619286,0.70503 -1.496949,1.65753 -1.950363,2.11667 -0.453414,0.45913 -1.139517,1.3408 -1.524673,1.95926 -0.385157,0.61847 -0.817854,1.12448 -0.961549,1.12448 -0.143695,0 -0.261264,0.16184 -0.261264,0.35964 0,0.1978 -0.415563,0.88241 -0.923474,1.52136 -0.50791,0.63894 -0.924629,1.27437 -0.926042,1.41207 -0.0014,0.1377 -0.299071,0.67822 -0.661464,1.20115 -1.057149,1.52547 -1.221269,4.70032 -0.291062,5.63053 0.193695,0.19369 0.548683,0.73218 0.788863,1.19663 0.24018,0.46446 0.727226,1.03484 1.082326,1.26751 0.355099,0.23267 0.725856,0.68027 0.823905,0.99468 0.09805,0.3144 0.298634,0.64892 0.445746,0.74338 0.490938,0.3152 -0.03948,1.01888 -0.768012,1.01888 -0.495946,0 -1.024939,-0.33946 -1.752311,-1.12447 z m 5.201877,-3.79602 c -0.69476,-2.04636 -0.410673,-4.29857 0.847789,-6.72117 1.066579,-2.05322 2.379514,-4.08884 3.869436,-5.99931 3.65699,-4.68922 4.644107,-6.16523 3.242631,-4.84861 -0.363802,0.34178 -0.661458,0.74848 -0.661458,0.90378 0,0.15531 -0.423175,0.7001 -0.940389,1.21065 -0.517214,0.51056 -1.528578,1.64265 -2.247476,2.51578 -0.718898,0.87312 -1.459143,1.76865 -1.644988,1.99006 -1.039629,1.23858 -3.951452,5.87134 -4.170615,6.63552 -0.387645,1.35163 -0.309228,2.95245 0.180503,3.68482 0.583812,0.87306 1.749332,2.12747 1.867197,2.0096 0.05185,-0.0518 -0.102336,-0.67335 -0.34263,-1.38112 z m 5.385681,-9.15203 c -0.163532,-0.4906 -0.733117,-0.57197 -0.733117,-0.10473 0,0.23041 0.188516,0.41892 0.418924,0.41892 0.230408,0 0.371795,-0.14138 0.314193,-0.31419 z m 4.563857,-9.87866 c 0.184076,-0.2218 0.261062,-0.47689 0.171082,-0.56687 -0.192164,-0.19217 -0.970139,0.39961 -0.970139,0.73795 0,0.36445 0.431231,0.27212 0.799057,-0.17108 z m 2.75349,-7.99218 c 0.764707,-0.9088 0.831951,-1.12955 0.344078,-1.12955 -0.185187,0 -0.565547,0.42493 -0.845241,0.94429 -0.279694,0.51936 -0.723487,1.05933 -0.986208,1.19993 -0.262723,0.14061 -0.477676,0.37916 -0.477676,0.53012 0,0.3528 1.088091,-0.50259 1.965047,-1.54479 z m 2.268286,-2.45247 c 0.602221,-0.84574 0.351915,-1.10803 -0.315624,-0.33073 -0.613034,0.71384 -0.79992,1.12448 -0.511757,1.12448 0.144201,0 0.516523,-0.35719 0.827381,-0.79375 z m 2.193632,-2.65035 0.579003,-0.92152 -0.842512,0.66145 c -0.463381,0.36381 -0.849099,0.82021 -0.85715,1.01424 -0.02416,0.58224 0.504524,0.22645 1.120659,-0.75417 z m 21.266088,36.07605 c -0.37536,-0.37537 -0.13671,-1.30267 0.88195,-3.42689 0.58208,-1.21382 1.05912,-2.35817 1.06007,-2.54299 0.001,-0.18481 0.2383,-0.69321 0.52743,-1.12978 0.46463,-0.70158 0.52588,-1.24687 0.52742,-4.69598 0.002,-3.75279 -0.0337,-4.00935 -0.9243,-6.69944 -0.50932,-1.53847 -0.92604,-2.97036 -0.92604,-3.18198 0,-0.21163 -0.24885,-1.06641 -0.553,-1.89952 -0.86033,-2.35653 -1.56498,-5.17394 -1.41499,-5.65749 0.15889,-0.51219 0.70911,-0.77803 1.09517,-0.52913 0.43086,0.27779 1.13439,1.80489 1.39214,3.02185 0.13057,0.61647 0.55543,1.9543 0.94413,2.97294 0.3887,1.01865 0.80801,2.4474 0.9318,3.175 0.12379,0.72761 0.40504,1.81796 0.625,2.42301 0.95684,2.632 1.24571,7.6577 0.576,10.02089 -0.56861,2.00643 -1.22329,3.84141 -1.81583,5.08954 -0.29487,0.6211 -0.4589,1.20649 -0.36452,1.30087 0.0944,0.0944 0.2092,0.12199 0.25515,0.0614 1.18476,-1.56327 3.21374,-5.11654 3.64328,-6.38033 0.46506,-1.36832 0.54021,-2.04708 0.41893,-3.78408 -0.16549,-2.37025 -0.74726,-5.15906 -1.49025,-7.14375 -0.27239,-0.7276 -0.70451,-2.09682 -0.96027,-3.04271 -0.25576,-0.94588 -0.68228,-2.16153 -0.94783,-2.70143 -0.26556,-0.53991 -0.48283,-1.33656 -0.48283,-1.77033 0,-0.43377 -0.11582,-0.86026 -0.25739,-0.94775 -0.39091,-0.2416 -0.86059,-2.24429 -0.6878,-2.93276 0.084,-0.33456 0.39052,-0.68378 0.68122,-0.77605 1.06143,-0.33688 1.53067,0.0906 2.1192,1.93071 0.312,0.97551 0.73204,2.13084 0.93341,2.56741 0.57153,1.23899 2.25579,6.46956 2.5559,7.9375 0.14875,0.7276 0.43311,1.79916 0.63191,2.38125 1.01076,2.95949 1.04956,7.15091 0.0837,9.04531 -0.27716,0.54365 -0.50394,1.18479 -0.50394,1.42475 0,0.23997 -0.27469,0.84108 -0.61042,1.33582 -0.81863,1.20631 -1.50897,2.61391 -1.28196,2.61391 0.30814,0 3.47988,-3.38889 3.47988,-3.71813 0,-0.0933 0.232,-0.43715 0.51556,-0.76409 0.86096,-0.9927 1.18808,-3.24904 0.84618,-5.83653 -0.16344,-1.23693 -0.48567,-2.9038 -0.71607,-3.70417 -0.23039,-0.80036 -0.57821,-2.11005 -0.77293,-2.91042 -0.19473,-0.80036 -0.722,-2.49678 -1.17172,-3.76981 -0.44973,-1.27304 -0.81768,-2.58449 -0.81768,-2.91434 0,-0.32985 -0.22149,-1.01468 -0.49219,-1.52185 -0.63353,-1.18695 -1.41487,-4.30746 -1.21133,-4.83786 0.32147,-0.83774 1.50182,-0.81616 1.83735,0.0336 0.0961,0.24341 0.27252,0.97835 0.39201,1.63319 0.11948,0.65484 0.5854,2.14313 1.03537,3.30729 0.44996,1.16417 0.81855,2.32885 0.81908,2.58819 5.3e-4,0.25933 0.18995,0.91418 0.42095,1.45521 0.23099,0.54103 0.71217,2.11478 1.06927,3.49723 0.35711,1.38245 0.90418,3.34698 1.21572,4.36562 0.41022,1.34127 0.57059,2.58183 0.58149,4.49792 0.0145,2.54199 -0.0206,2.70814 -0.89324,4.23333 -1.28629,2.24818 -2.55249,3.89418 -3.46412,4.50317 -0.43135,0.28815 -0.85118,0.7324 -0.93295,0.98722 -0.19119,0.5958 -1.01379,1.03569 -1.55115,0.82948 -0.23008,-0.0883 -0.49218,-0.45478 -0.58245,-0.81442 l -0.16411,-0.6539 -0.75867,0.83063 c -0.65625,0.71851 -0.90917,0.81965 -1.87358,0.74923 -0.92942,-0.0679 -1.13979,-0.1878 -1.26449,-0.72093 l -0.14959,-0.63952 -0.46237,0.70567 c -0.43613,0.66561 -1.20537,0.9206 -1.5967,0.52928 z"
         id="path70"
         inkscape:connector-curvature="0" />
      <path
         style="fill:#f1686d;stroke-width:0.26458335"
         d="m 65.1533,182.31357 c -0.06944,-0.18244 -0.09564,-16.34563 -0.05822,-35.91818 l 0.06802,-35.58646 h 34.263542 34.263538 v 35.85104 35.85105 l -34.205314,0.0671 c -27.224899,0.0534 -34.231082,-5.3e-4 -34.331565,-0.26459 z m 65.89105,-35.78589 v -33.3375 H 99.162057 67.279765 l -0.06806,33.07292 c -0.03743,18.1901 -0.01122,33.22223 0.05825,33.40471 0.100496,0.26399 6.630564,0.31806 31.950352,0.26459 l 31.824043,-0.0672 z m -61.515626,17.4625 v -7.01146 h 30.030208 30.030208 v 7.01146 7.01146 H 99.558932 69.528724 Z m 15.526038,4.15879 c 0.171873,-0.1093 0.350467,-0.73255 0.396875,-1.38501 0.08268,-1.16235 0.104389,-1.18793 1.076566,-1.2684 l 0.992187,-0.0821 v 1.15368 c 0,1.28345 0.345136,1.78868 1.221902,1.78868 1.403085,0 1.423932,-0.0581 1.423932,-3.96875 0,-3.91065 -0.02085,-3.96875 -1.423932,-3.96875 -0.876766,0 -1.221902,0.50522 -1.221902,1.78868 v 1.15368 l -0.992187,-0.0821 c -0.972177,-0.0805 -0.993889,-0.10604 -1.076566,-1.26839 -0.04641,-0.65246 -0.225002,-1.27571 -0.396875,-1.38502 -0.487896,-0.31027 -1.892272,-0.24102 -2.243955,0.11067 -0.439904,0.4399 -0.439904,6.86259 0,7.3025 0.351683,0.35168 1.756059,0.42094 2.243955,0.11066 z m 13.066356,-0.067 c 0.281474,-0.15064 0.511772,-0.50364 0.511772,-0.78444 0,-0.73666 -0.798901,-1.05834 -2.628439,-1.05834 -1.428504,0 -1.604894,-0.0582 -1.604894,-0.52916 0,-0.47317 0.17639,-0.52917 1.666875,-0.52917 0.943682,0 1.804625,-0.13775 1.984375,-0.3175 0.373568,-0.37357 0.422754,-1.43831 0.07633,-1.65241 -0.141033,-0.0872 -0.115892,-0.48094 0.06055,-0.94838 0.55405,-1.46785 0.136398,-1.70148 -3.193728,-1.78648 -3.850216,-0.0983 -3.769402,-0.18212 -3.769402,3.91102 0,4.03953 -0.06435,3.96875 3.608168,3.96875 1.527141,0 3.006918,-0.12325 3.288393,-0.27389 z m 3.776872,-0.0594 c 0.39797,-0.291 0.44637,-0.76877 0.3813,-3.76435 l -0.0745,-3.43104 -0.74157,-0.26039 c -1.4395,-0.50545 -1.630887,-0.0946 -1.713953,3.67947 -0.04978,2.26169 0.02633,3.49559 0.230833,3.74199 0.38017,0.45807 1.31551,0.47481 1.91791,0.0343 z m 8.0457,-0.16038 c 0.88816,-0.47533 1.3892,-1.68882 1.3892,-3.36455 0,-1.91657 -0.67351,-3.07408 -2.1271,-3.65569 -1.26599,-0.50655 -4.75701,-0.57738 -5.22832,-0.10607 -0.45027,0.45028 -0.43871,6.85916 0.0132,7.32836 0.41382,0.42962 5.06785,0.27166 5.95299,-0.20205 z m -3.10872,-3.34277 c 0,-1.61818 0.036,-1.71979 0.60855,-1.71979 0.8681,0 1.24354,0.48872 1.24354,1.61877 0,1.45146 -0.22043,1.82081 -1.08664,1.82081 h -0.76545 z m 7.9549,3.56257 c 0.46546,-0.24911 0.51177,-0.58344 0.51177,-3.69486 0,-3.11142 -0.0463,-3.44575 -0.51177,-3.69486 -0.7342,-0.39293 -1.50307,-0.33792 -1.98287,0.14188 -0.60659,0.60659 -0.60659,6.49937 0,7.10595 0.4798,0.4798 1.24867,0.53482 1.98287,0.14189 z M 76.786263,154.5972 c -1.221775,-0.78297 -2.779366,-2.78229 -3.709446,-4.76144 -0.552548,-1.17579 -0.338712,-3.66689 0.420167,-4.89478 0.291311,-0.47136 0.529656,-1.00811 0.529656,-1.1928 0,-0.42114 1.983414,-3.36682 3.562109,-5.29029 0.656901,-0.80036 1.30744,-1.71153 1.445641,-2.02482 0.138202,-0.31328 0.380786,-0.64965 0.539076,-0.74748 0.15829,-0.0978 0.890952,-0.91306 1.628139,-1.81164 1.436846,-1.7514 4.319661,-4.98033 5.723473,-6.41065 0.472943,-0.48187 0.859896,-0.96119 0.859896,-1.06516 0,-0.10396 1.190625,-1.46939 2.645833,-3.03427 1.455208,-1.56488 2.645833,-2.9624 2.645833,-3.1056 0,-0.14319 0.28932,-0.44992 0.642933,-0.68162 0.353613,-0.2317 0.857131,-0.78387 1.118931,-1.22706 0.261797,-0.44319 0.923917,-1.11621 1.471377,-1.4956 0.818583,-0.56728 1.066294,-0.63095 1.394613,-0.35847 0.518427,0.43026 0.520049,1.82428 0.0024,2.02294 -0.51544,0.19778 -0.51544,0.88943 -2.6e-5,0.88943 0.218281,0 0.398931,-0.20836 0.401447,-0.46302 0.005,-0.50584 1.083683,-1.65365 1.554075,-1.65365 0.161391,0 0.293436,0.29369 0.293436,0.65263 0,0.57818 -0.852908,1.73323 -2.9371,3.97758 -0.966909,1.04121 -5.667012,6.54768 -5.926442,6.9432 -0.14552,0.22185 -0.502708,0.66949 -0.79375,0.99474 -0.520705,0.5819 -1.847823,2.21644 -4.251688,5.23657 -0.703273,0.88357 -1.157424,1.69609 -1.07218,1.91823 0.127222,0.33154 2.367272,0.38539 16.031194,0.38539 13.9421,0 15.8833,0.0485 15.8833,0.39687 0,0.34857 -2.02259,0.39688 -16.61583,0.39688 -16.549415,0 -17.250837,0.0344 -17.250837,0.84666 0,0.11642 7.491201,0.21167 16.64711,0.21167 9.155917,0 16.838747,0.0735 17.072977,0.16342 0.67556,0.25924 1.00293,1.07732 0.67575,1.68866 -0.27867,0.52069 -0.55399,0.52917 -17.18516,0.52917 H 83.331193 l -0.551265,-0.7276 c -0.541727,-0.71502 -0.558263,-0.71854 -0.955757,-0.20356 -0.990759,1.2836 -1.461546,1.25057 17.244205,1.2099 9.625614,-0.0209 17.811164,0.0398 18.190104,0.13487 0.37895,0.0951 0.68899,0.33861 0.68899,0.54112 0,0.31107 -2.91399,0.36819 -18.784926,0.36819 H 80.377612 l -0.77985,1.25294 c -0.938811,1.50833 -1.280991,3.87198 -0.812442,5.61204 0.179477,0.66653 0.916267,1.91274 1.744746,2.95109 0.788741,0.98854 1.434074,1.86323 1.434074,1.94376 0,0.0805 -0.275748,0.14642 -0.612775,0.14642 -0.638421,0 -2.297641,-1.61909 -2.297641,-2.24207 0,-0.18643 -0.185473,-0.4929 -0.412162,-0.68104 -1.529692,-1.26953 -1.555706,-6.41393 -0.04116,-8.14076 0.214905,-0.24503 0.476592,-0.72669 0.581526,-1.07035 0.343282,-1.12427 6.038661,-8.75407 8.026162,-10.75224 0.434233,-0.43656 0.868759,-1.06164 0.965615,-1.38906 0.09686,-0.32743 0.285982,-0.59532 0.420282,-0.59532 0.1343,0 0.632294,-0.5203 1.106649,-1.15624 0.474358,-0.63593 1.844733,-2.31664 3.04528,-3.73491 1.200547,-1.41827 2.182813,-2.67588 2.182813,-2.79468 0,-0.1188 0.219062,-0.28553 0.486804,-0.37051 0.526992,-0.16726 1.289286,-1.36826 1.031854,-1.62569 -0.206129,-0.20613 -3.367604,3.10077 -3.369379,3.52437 -7.94e-4,0.17855 -0.28325,0.50933 -0.627779,0.73508 -0.344528,0.22574 -1.445856,1.38218 -2.447396,2.56985 -1.001538,1.18768 -2.297229,2.65628 -2.879313,3.26354 -0.582083,0.60727 -1.381885,1.50741 -1.777338,2.00031 -0.395452,0.49289 -1.586077,1.91475 -2.645833,3.15968 -2.427078,2.85116 -4.407413,5.44039 -5.892,7.70363 -2.563143,3.90749 -2.260458,6.69646 1.000114,9.21516 1.212694,0.93677 1.66178,1.8589 1.153055,2.36762 -0.424102,0.42411 -1.274729,0.32586 -2.17525,-0.25123 z m -4.887014,-1.17398 c -0.631472,-0.79136 -1.490378,-2.07129 -1.908678,-2.84427 -0.686675,-1.26893 -0.747818,-1.58532 -0.629501,-3.25752 0.09437,-1.33372 0.342099,-2.25936 0.885135,-3.30729 0.899625,-1.73605 2.084718,-3.58101 3.083408,-4.80027 0.400171,-0.48855 1.167193,-1.43531 1.704493,-2.10391 1.639206,-2.0398 4.219894,-4.99412 6.896436,-7.89491 1.400927,-1.51829 3.433375,-3.72095 4.516552,-4.89479 1.083176,-1.17383 2.589192,-2.78909 3.3467,-3.58945 0.757507,-0.80037 1.941393,-2.08029 2.630855,-2.84427 1.338913,-1.48363 1.63299,-1.63388 1.88953,-0.96534 0.100287,0.26134 -0.102521,0.69226 -0.52923,1.12448 -0.380506,0.38541 -1.248344,1.3556 -1.92853,2.15596 -0.680185,0.80037 -1.457798,1.5627 -1.728031,1.69408 -0.270232,0.13138 -0.491331,0.34728 -0.491331,0.47977 0,0.1325 -0.90833,1.21563 -2.018511,2.40697 -1.110181,1.19133 -2.806822,3.03395 -3.770312,4.09471 -0.963491,1.06076 -2.287583,2.49914 -2.942427,3.19641 -0.654844,0.69726 -1.666875,1.83965 -2.248958,2.53863 -0.582084,0.69899 -1.429309,1.64186 -1.882723,2.09526 -0.453413,0.45341 -1.139516,1.33039 -1.524673,1.94886 -0.385156,0.61846 -0.80983,1.12448 -0.943719,1.12448 -0.133889,0 -0.319216,0.23877 -0.411838,0.53059 -0.09262,0.29183 -0.443381,0.85739 -0.779462,1.2568 -1.111526,1.32097 -2.552462,4.29932 -2.705604,5.59236 -0.115446,0.97477 -0.01938,1.53166 0.419598,2.43234 1.007582,2.06732 1.349047,2.58721 2.073595,3.15714 0.390866,0.30746 0.857589,0.90844 1.037161,1.33552 0.306371,0.72864 0.288949,0.7765 -0.282654,0.7765 -0.420383,0 -0.964938,-0.44588 -1.757281,-1.43884 z m 46.413451,0.52574 c -0.081,-0.21116 0.1842,-0.81857 0.58939,-1.3498 1.39771,-1.8325 3.29419,-5.01616 3.61672,-6.07148 0.7305,-2.39017 0.0103,-8.97203 -1.24527,-11.37993 -0.22681,-0.435 -0.41312,-0.95101 -0.41402,-1.1467 -0.003,-0.62313 -1.12548,-4.12178 -1.49655,-4.66401 -0.19644,-0.28704 -0.35716,-0.87453 -0.35716,-1.30553 0,-0.431 -0.24691,-1.29367 -0.54868,-1.91705 -0.6213,-1.28342 -0.59243,-2.15209 0.0857,-2.57715 0.77654,-0.48679 1.31239,0.12728 2.07121,2.37353 2.80435,8.30132 3.41889,10.21685 3.41889,10.65665 0,0.2742 0.25017,1.2582 0.55593,2.18666 0.39757,1.20725 0.56684,2.44179 0.59426,4.33395 0.033,2.27581 -0.0448,2.80423 -0.55593,3.77846 -0.32684,0.62294 -0.59426,1.35103 -0.59426,1.61796 0,0.26694 -0.22129,0.76929 -0.49175,1.11634 -0.27047,0.34704 -0.70476,1.04771 -0.9651,1.55703 -0.26034,0.50932 -0.88683,1.43206 -1.3922,2.05052 -0.75467,0.92355 -1.08013,1.12448 -1.82133,1.12448 -0.5446,0 -0.9609,-0.15224 -1.04981,-0.38393 z m -2.33707,-0.47596 c 0.0993,-0.32743 0.39724,-1.01204 0.66217,-1.52136 0.26493,-0.50932 0.65634,-1.34276 0.8698,-1.85208 0.21345,-0.50932 0.70948,-1.62881 1.10229,-2.48775 0.6957,-1.52128 0.71178,-1.66922 0.6212,-5.71416 -0.0551,-2.4607 -0.21101,-4.3037 -0.38266,-4.5237 -0.15932,-0.2042 -0.44569,-0.96658 -0.63637,-1.69418 -0.19069,-0.72761 -0.43227,-1.44198 -0.53685,-1.5875 -0.10458,-0.14552 -0.27042,-0.8196 -0.36852,-1.49795 -0.0981,-0.67835 -0.3946,-1.69038 -0.65887,-2.24896 -0.71994,-1.52166 -1.46375,-4.84032 -1.15423,-5.14983 0.35898,-0.35899 1.13526,0.88658 1.31194,2.10509 0.0774,0.53395 0.36604,1.45489 0.64136,2.04654 0.27532,0.59164 0.50058,1.28044 0.50058,1.53066 0,0.25022 0.16442,0.71864 0.36538,1.04094 0.20095,0.3223 0.43496,1.22369 0.52002,2.00308 0.085,0.77939 0.26223,1.5533 0.39372,1.71979 0.60646,0.76788 0.96984,3.40923 0.96984,7.04959 0,3.43399 -0.0619,3.96203 -0.58997,5.03344 -0.32448,0.65833 -0.66978,1.61083 -0.76732,2.11666 -0.27248,1.41293 -1.97234,4.22699 -2.55335,4.22699 -0.3859,0 -0.45211,-0.12709 -0.31016,-0.59531 z m 6.46976,0.10865 c 0,-0.26766 0.4132,-0.89273 0.91822,-1.38906 1.74662,-1.71655 2.19197,-2.23124 3.13037,-3.61785 1.09179,-1.61324 1.63552,-3.7986 1.38944,-5.58434 -0.30922,-2.24388 -0.9926,-5.45495 -1.22079,-5.73626 -0.12391,-0.15274 -0.30116,-0.80759 -0.39391,-1.45521 -0.0927,-0.64762 -0.32691,-1.53468 -0.52037,-1.97125 -0.19345,-0.43656 -0.43687,-1.15094 -0.54091,-1.5875 -0.10405,-0.43656 -0.28138,-0.91281 -0.39408,-1.05833 -0.11269,-0.14552 -0.34269,-1.02557 -0.51111,-1.95567 -0.16842,-0.9301 -0.47047,-1.94213 -0.67121,-2.24896 -0.39104,-0.59771 -1.18565,-3.40265 -1.18565,-4.18533 0,-0.26047 0.17441,-0.47358 0.38757,-0.47358 0.49043,0 0.93535,0.81667 0.93535,1.71691 0,0.38135 0.22942,1.19698 0.50983,1.81251 0.2804,0.61553 0.59447,1.4722 0.69794,1.90371 0.10346,0.43152 0.2745,0.90364 0.38009,1.04916 0.10559,0.14552 0.27299,0.79446 0.372,1.44208 0.099,0.64762 0.30353,1.32632 0.45448,1.50822 0.15096,0.18189 0.65503,1.85467 1.12016,3.71729 0.46512,1.86262 0.93121,3.52324 1.03574,3.69026 0.38466,0.61463 0.7695,4.5085 0.60616,6.13331 -0.21111,2.10007 -1.23391,3.98244 -3.37759,6.21615 -0.86266,0.89889 -1.68403,1.84272 -1.82525,2.09738 -0.34683,0.62543 -1.29648,0.60812 -1.29648,-0.0236 z"
         id="path68"
         inkscape:connector-curvature="0" />
      <path
         style="fill:#22a7e8;stroke-width:0.26458335"
         d="m 65.417882,182.049 c -0.06944,-0.18245 -0.09564,-16.22658 -0.05823,-35.65361 l 0.06803,-35.32187 H 99.426641 133.4256 v 35.58645 35.58646 l -33.940733,0.0671 c -27.01322,0.0534 -33.966501,-5.3e-4 -34.066985,-0.26458 z M 131.30893,146.52768 V 112.9256 H 99.162057 67.015182 l -0.06806,33.3375 c -0.03743,18.33563 -0.01122,33.48681 0.05825,33.66929 0.100496,0.26399 6.683464,0.31805 32.214932,0.26458 l 32.088626,-0.0672 z m -61.780206,17.4625 v -7.01146 h 30.030208 30.030208 v 7.01146 7.01146 H 99.558932 69.528724 Z m 15.526038,4.15879 c 0.171873,-0.1093 0.350467,-0.73255 0.396875,-1.38501 0.08268,-1.16235 0.104389,-1.18793 1.076566,-1.2684 l 0.992187,-0.0821 v 1.15368 c 0,1.28345 0.345136,1.78868 1.221902,1.78868 1.403085,0 1.423932,-0.0581 1.423932,-3.96875 0,-3.91065 -0.02085,-3.96875 -1.423932,-3.96875 -0.876766,0 -1.221902,0.50522 -1.221902,1.78868 v 1.15368 l -0.992187,-0.0821 c -0.972177,-0.0805 -0.993889,-0.10604 -1.076566,-1.26839 -0.04641,-0.65246 -0.225002,-1.27571 -0.396875,-1.38502 -0.487896,-0.31027 -1.892272,-0.24102 -2.243955,0.11067 -0.439904,0.4399 -0.439904,6.86259 0,7.3025 0.351683,0.35168 1.756059,0.42094 2.243955,0.11066 z m 13.066356,-0.067 c 0.281474,-0.15064 0.511772,-0.50364 0.511772,-0.78444 0,-0.73666 -0.798901,-1.05834 -2.628439,-1.05834 -1.428504,0 -1.604894,-0.0582 -1.604894,-0.52916 0,-0.47317 0.17639,-0.52917 1.666875,-0.52917 0.943682,0 1.804625,-0.13775 1.984375,-0.3175 0.373568,-0.37357 0.422754,-1.43831 0.07633,-1.65241 -0.141033,-0.0872 -0.115892,-0.48094 0.06055,-0.94838 0.55405,-1.46785 0.136398,-1.70148 -3.193728,-1.78648 -3.850216,-0.0983 -3.769402,-0.18212 -3.769402,3.91102 0,4.03953 -0.06435,3.96875 3.608168,3.96875 1.527141,0 3.006918,-0.12325 3.288393,-0.27389 z m 3.776872,-0.0594 c 0.39797,-0.291 0.44637,-0.76877 0.3813,-3.76435 l -0.0745,-3.43104 -0.74157,-0.26039 c -1.4395,-0.50545 -1.630887,-0.0946 -1.713953,3.67947 -0.04978,2.26169 0.02633,3.49559 0.230833,3.74199 0.38017,0.45807 1.31551,0.47481 1.91791,0.0343 z m 8.0457,-0.16038 c 0.88816,-0.47533 1.3892,-1.68882 1.3892,-3.36455 0,-1.91657 -0.67351,-3.07408 -2.1271,-3.65569 -1.26599,-0.50655 -4.75701,-0.57738 -5.22832,-0.10607 -0.45027,0.45028 -0.43871,6.85916 0.0132,7.32836 0.41382,0.42962 5.06785,0.27166 5.95299,-0.20205 z m -3.10872,-3.34277 c 0,-1.61818 0.036,-1.71979 0.60855,-1.71979 0.8681,0 1.24354,0.48872 1.24354,1.61877 0,1.45146 -0.22043,1.82081 -1.08664,1.82081 h -0.76545 z m 7.9549,3.56257 c 0.46546,-0.24911 0.51177,-0.58344 0.51177,-3.69486 0,-3.11142 -0.0463,-3.44575 -0.51177,-3.69486 -0.7342,-0.39293 -1.50307,-0.33792 -1.98287,0.14188 -0.60659,0.60659 -0.60659,6.49937 0,7.10595 0.4798,0.4798 1.24867,0.53482 1.98287,0.14189 z M 76.786263,154.5972 c -1.221775,-0.78297 -2.779366,-2.78229 -3.709446,-4.76144 -0.552548,-1.17579 -0.338712,-3.66689 0.420167,-4.89478 0.291311,-0.47136 0.529656,-1.00811 0.529656,-1.1928 0,-0.42114 1.983414,-3.36682 3.562109,-5.29029 0.656901,-0.80036 1.30744,-1.71153 1.445641,-2.02482 0.138202,-0.31328 0.380786,-0.64965 0.539076,-0.74748 0.15829,-0.0978 0.890952,-0.91306 1.628139,-1.81164 1.436846,-1.7514 4.319661,-4.98033 5.723473,-6.41065 0.472943,-0.48187 0.859896,-0.96119 0.859896,-1.06516 0,-0.10396 1.190625,-1.46939 2.645833,-3.03427 1.455208,-1.56488 2.645833,-2.9624 2.645833,-3.1056 0,-0.14319 0.28932,-0.44992 0.642933,-0.68162 0.353613,-0.2317 0.857131,-0.78387 1.118931,-1.22706 0.261797,-0.44319 0.923917,-1.11621 1.471377,-1.4956 0.818583,-0.56728 1.066294,-0.63095 1.394613,-0.35847 0.518427,0.43026 0.520049,1.82428 0.0024,2.02294 -0.51544,0.19778 -0.51544,0.88943 -2.6e-5,0.88943 0.218281,0 0.398931,-0.20836 0.401447,-0.46302 0.005,-0.50584 1.083683,-1.65365 1.554075,-1.65365 0.161391,0 0.293436,0.29369 0.293436,0.65263 0,0.57818 -0.852908,1.73323 -2.9371,3.97758 -0.966909,1.04121 -5.667012,6.54768 -5.926442,6.9432 -0.14552,0.22185 -0.502708,0.66949 -0.79375,0.99474 -0.520705,0.5819 -1.847823,2.21644 -4.251688,5.23657 -0.703273,0.88357 -1.157424,1.69609 -1.07218,1.91823 0.127222,0.33154 2.367272,0.38539 16.031194,0.38539 13.9421,0 15.8833,0.0485 15.8833,0.39687 0,0.34857 -2.02259,0.39688 -16.61583,0.39688 -16.549415,0 -17.250837,0.0344 -17.250837,0.84666 0,0.11642 7.491201,0.21167 16.64711,0.21167 9.155917,0 16.838747,0.0735 17.072977,0.16342 0.67556,0.25924 1.00293,1.07732 0.67575,1.68866 -0.27867,0.52069 -0.55399,0.52917 -17.18516,0.52917 H 83.331193 l -0.551265,-0.7276 c -0.541727,-0.71502 -0.558263,-0.71854 -0.955757,-0.20356 -0.990759,1.2836 -1.461546,1.25057 17.244205,1.2099 9.625614,-0.0209 17.811164,0.0398 18.190104,0.13487 0.37895,0.0951 0.68899,0.33861 0.68899,0.54112 0,0.31107 -2.91399,0.36819 -18.784926,0.36819 H 80.377612 l -0.77985,1.25294 c -0.938811,1.50833 -1.280991,3.87198 -0.812442,5.61204 0.179477,0.66653 0.916267,1.91274 1.744746,2.95109 0.788741,0.98854 1.434074,1.86323 1.434074,1.94376 0,0.0805 -0.275748,0.14642 -0.612775,0.14642 -0.638421,0 -2.297641,-1.61909 -2.297641,-2.24207 0,-0.18643 -0.185473,-0.4929 -0.412162,-0.68104 -1.529692,-1.26953 -1.555706,-6.41393 -0.04116,-8.14076 0.214905,-0.24503 0.476592,-0.72669 0.581526,-1.07035 0.343282,-1.12427 6.038661,-8.75407 8.026162,-10.75224 0.434233,-0.43656 0.868759,-1.06164 0.965615,-1.38906 0.09686,-0.32743 0.285982,-0.59532 0.420282,-0.59532 0.1343,0 0.632294,-0.5203 1.106649,-1.15624 0.474358,-0.63593 1.844733,-2.31664 3.04528,-3.73491 1.200547,-1.41827 2.182813,-2.67588 2.182813,-2.79468 0,-0.1188 0.219062,-0.28553 0.486804,-0.37051 0.526992,-0.16726 1.289286,-1.36826 1.031854,-1.62569 -0.206129,-0.20613 -3.367604,3.10077 -3.369379,3.52437 -7.94e-4,0.17855 -0.28325,0.50933 -0.627779,0.73508 -0.344528,0.22574 -1.445856,1.38218 -2.447396,2.56985 -1.001538,1.18768 -2.297229,2.65628 -2.879313,3.26354 -0.582083,0.60727 -1.381885,1.50741 -1.777338,2.00031 -0.395452,0.49289 -1.586077,1.91475 -2.645833,3.15968 -2.427078,2.85116 -4.407413,5.44039 -5.892,7.70363 -2.563143,3.90749 -2.260458,6.69646 1.000114,9.21516 1.212694,0.93677 1.66178,1.8589 1.153055,2.36762 -0.424102,0.42411 -1.274729,0.32586 -2.17525,-0.25123 z m -4.887014,-1.17398 c -0.631472,-0.79136 -1.490378,-2.07129 -1.908678,-2.84427 -0.686675,-1.26893 -0.747818,-1.58532 -0.629501,-3.25752 0.09437,-1.33372 0.342099,-2.25936 0.885135,-3.30729 0.899625,-1.73605 2.084718,-3.58101 3.083408,-4.80027 0.400171,-0.48855 1.167193,-1.43531 1.704493,-2.10391 1.639206,-2.0398 4.219894,-4.99412 6.896436,-7.89491 1.400927,-1.51829 3.433375,-3.72095 4.516552,-4.89479 1.083176,-1.17383 2.589192,-2.78909 3.3467,-3.58945 0.757507,-0.80037 1.941393,-2.08029 2.630855,-2.84427 1.338913,-1.48363 1.63299,-1.63388 1.88953,-0.96534 0.100287,0.26134 -0.102521,0.69226 -0.52923,1.12448 -0.380506,0.38541 -1.248344,1.3556 -1.92853,2.15596 -0.680185,0.80037 -1.457798,1.5627 -1.728031,1.69408 -0.270232,0.13138 -0.491331,0.34728 -0.491331,0.47977 0,0.1325 -0.90833,1.21563 -2.018511,2.40697 -1.110181,1.19133 -2.806822,3.03395 -3.770312,4.09471 -0.963491,1.06076 -2.287583,2.49914 -2.942427,3.19641 -0.654844,0.69726 -1.666875,1.83965 -2.248958,2.53863 -0.582084,0.69899 -1.429309,1.64186 -1.882723,2.09526 -0.453413,0.45341 -1.139516,1.33039 -1.524673,1.94886 -0.385156,0.61846 -0.80983,1.12448 -0.943719,1.12448 -0.133889,0 -0.319216,0.23877 -0.411838,0.53059 -0.09262,0.29183 -0.443381,0.85739 -0.779462,1.2568 -1.111526,1.32097 -2.552462,4.29932 -2.705604,5.59236 -0.115446,0.97477 -0.01938,1.53166 0.419598,2.43234 1.007582,2.06732 1.349047,2.58721 2.073595,3.15714 0.390866,0.30746 0.857589,0.90844 1.037161,1.33552 0.306371,0.72864 0.288949,0.7765 -0.282654,0.7765 -0.420383,0 -0.964938,-0.44588 -1.757281,-1.43884 z m 46.413451,0.52574 c -0.081,-0.21116 0.1842,-0.81857 0.58939,-1.3498 1.39771,-1.8325 3.29419,-5.01616 3.61672,-6.07148 0.7305,-2.39017 0.0103,-8.97203 -1.24527,-11.37993 -0.22681,-0.435 -0.41312,-0.95101 -0.41402,-1.1467 -0.003,-0.62313 -1.12548,-4.12178 -1.49655,-4.66401 -0.19644,-0.28704 -0.35716,-0.87453 -0.35716,-1.30553 0,-0.431 -0.24691,-1.29367 -0.54868,-1.91705 -0.6213,-1.28342 -0.59243,-2.15209 0.0857,-2.57715 0.77654,-0.48679 1.31239,0.12728 2.07121,2.37353 2.80435,8.30132 3.41889,10.21685 3.41889,10.65665 0,0.2742 0.25017,1.2582 0.55593,2.18666 0.39757,1.20725 0.56684,2.44179 0.59426,4.33395 0.033,2.27581 -0.0448,2.80423 -0.55593,3.77846 -0.32684,0.62294 -0.59426,1.35103 -0.59426,1.61796 0,0.26694 -0.22129,0.76929 -0.49175,1.11634 -0.27047,0.34704 -0.70476,1.04771 -0.9651,1.55703 -0.26034,0.50932 -0.88683,1.43206 -1.3922,2.05052 -0.75467,0.92355 -1.08013,1.12448 -1.82133,1.12448 -0.5446,0 -0.9609,-0.15224 -1.04981,-0.38393 z m -2.33707,-0.47596 c 0.0993,-0.32743 0.39724,-1.01204 0.66217,-1.52136 0.26493,-0.50932 0.65634,-1.34276 0.8698,-1.85208 0.21345,-0.50932 0.70948,-1.62881 1.10229,-2.48775 0.6957,-1.52128 0.71178,-1.66922 0.6212,-5.71416 -0.0551,-2.4607 -0.21101,-4.3037 -0.38266,-4.5237 -0.15932,-0.2042 -0.44569,-0.96658 -0.63637,-1.69418 -0.19069,-0.72761 -0.43227,-1.44198 -0.53685,-1.5875 -0.10458,-0.14552 -0.27042,-0.8196 -0.36852,-1.49795 -0.0981,-0.67835 -0.3946,-1.69038 -0.65887,-2.24896 -0.71994,-1.52166 -1.46375,-4.84032 -1.15423,-5.14983 0.35898,-0.35899 1.13526,0.88658 1.31194,2.10509 0.0774,0.53395 0.36604,1.45489 0.64136,2.04654 0.27532,0.59164 0.50058,1.28044 0.50058,1.53066 0,0.25022 0.16442,0.71864 0.36538,1.04094 0.20095,0.3223 0.43496,1.22369 0.52002,2.00308 0.085,0.77939 0.26223,1.5533 0.39372,1.71979 0.60646,0.76788 0.96984,3.40923 0.96984,7.04959 0,3.43399 -0.0619,3.96203 -0.58997,5.03344 -0.32448,0.65833 -0.66978,1.61083 -0.76732,2.11666 -0.27248,1.41293 -1.97234,4.22699 -2.55335,4.22699 -0.3859,0 -0.45211,-0.12709 -0.31016,-0.59531 z m 6.46976,0.10865 c 0,-0.26766 0.4132,-0.89273 0.91822,-1.38906 1.74662,-1.71655 2.19197,-2.23124 3.13037,-3.61785 1.09179,-1.61324 1.63552,-3.7986 1.38944,-5.58434 -0.30922,-2.24388 -0.9926,-5.45495 -1.22079,-5.73626 -0.12391,-0.15274 -0.30116,-0.80759 -0.39391,-1.45521 -0.0927,-0.64762 -0.32691,-1.53468 -0.52037,-1.97125 -0.19345,-0.43656 -0.43687,-1.15094 -0.54091,-1.5875 -0.10405,-0.43656 -0.28138,-0.91281 -0.39408,-1.05833 -0.11269,-0.14552 -0.34269,-1.02557 -0.51111,-1.95567 -0.16842,-0.9301 -0.47047,-1.94213 -0.67121,-2.24896 -0.39104,-0.59771 -1.18565,-3.40265 -1.18565,-4.18533 0,-0.26047 0.17441,-0.47358 0.38757,-0.47358 0.49043,0 0.93535,0.81667 0.93535,1.71691 0,0.38135 0.22942,1.19698 0.50983,1.81251 0.2804,0.61553 0.59447,1.4722 0.69794,1.90371 0.10346,0.43152 0.2745,0.90364 0.38009,1.04916 0.10559,0.14552 0.27299,0.79446 0.372,1.44208 0.099,0.64762 0.30353,1.32632 0.45448,1.50822 0.15096,0.18189 0.65503,1.85467 1.12016,3.71729 0.46512,1.86262 0.93121,3.52324 1.03574,3.69026 0.38466,0.61463 0.7695,4.5085 0.60616,6.13331 -0.21111,2.10007 -1.23391,3.98244 -3.37759,6.21615 -0.86266,0.89889 -1.68403,1.84272 -1.82525,2.09738 -0.34683,0.62543 -1.29648,0.60812 -1.29648,-0.0236 z"
         id="path66"
         inkscape:connector-curvature="0" />
      <path
         style="fill:#545cd0;stroke-width:0.26458335"
         d="m 65.417882,182.049 c -0.06944,-0.18245 -0.09564,-16.22658 -0.05823,-35.65361 l 0.06803,-35.32187 H 99.426641 133.4256 v 35.58645 35.58646 l -33.940733,0.0671 c -27.01322,0.0534 -33.966501,-5.3e-4 -34.066985,-0.26458 z M 131.30893,146.52768 V 112.9256 H 99.162057 67.015182 l -0.06806,33.3375 c -0.03743,18.33563 -0.01122,33.48681 0.05825,33.66929 0.100496,0.26399 6.683464,0.31805 32.214932,0.26458 l 32.088626,-0.0672 z m -61.780206,17.4625 v -7.01146 h 30.030208 30.030208 v 7.01146 7.01146 H 99.558932 69.528724 Z m 15.526038,4.15879 c 0.171873,-0.1093 0.350467,-0.73255 0.396875,-1.38501 0.08268,-1.16235 0.104389,-1.18793 1.076566,-1.2684 l 0.992187,-0.0821 v 1.15368 c 0,1.28345 0.345136,1.78868 1.221902,1.78868 1.403085,0 1.423932,-0.0581 1.423932,-3.96875 0,-3.91065 -0.02085,-3.96875 -1.423932,-3.96875 -0.876766,0 -1.221902,0.50522 -1.221902,1.78868 v 1.15368 l -0.992187,-0.0821 c -0.972177,-0.0805 -0.993889,-0.10604 -1.076566,-1.26839 -0.04641,-0.65246 -0.225002,-1.27571 -0.396875,-1.38502 -0.487896,-0.31027 -1.892272,-0.24102 -2.243955,0.11067 -0.439904,0.4399 -0.439904,6.86259 0,7.3025 0.351683,0.35168 1.756059,0.42094 2.243955,0.11066 z m 13.066356,-0.067 c 0.281474,-0.15064 0.511772,-0.50364 0.511772,-0.78444 0,-0.73666 -0.798901,-1.05834 -2.628439,-1.05834 -1.428504,0 -1.604894,-0.0582 -1.604894,-0.52916 0,-0.47317 0.17639,-0.52917 1.666875,-0.52917 0.943682,0 1.804625,-0.13775 1.984375,-0.3175 0.373568,-0.37357 0.422754,-1.43831 0.07633,-1.65241 -0.141033,-0.0872 -0.115892,-0.48094 0.06055,-0.94838 0.55405,-1.46785 0.136398,-1.70148 -3.193728,-1.78648 -3.850216,-0.0983 -3.769402,-0.18212 -3.769402,3.91102 0,4.03953 -0.06435,3.96875 3.608168,3.96875 1.527141,0 3.006918,-0.12325 3.288393,-0.27389 z m 3.776872,-0.0594 c 0.39797,-0.291 0.44637,-0.76877 0.3813,-3.76435 l -0.0745,-3.43104 -0.74157,-0.26039 c -1.4395,-0.50545 -1.630887,-0.0946 -1.713953,3.67947 -0.04978,2.26169 0.02633,3.49559 0.230833,3.74199 0.38017,0.45807 1.31551,0.47481 1.91791,0.0343 z m 8.0457,-0.16038 c 0.88816,-0.47533 1.3892,-1.68882 1.3892,-3.36455 0,-1.91657 -0.67351,-3.07408 -2.1271,-3.65569 -1.26599,-0.50655 -4.75701,-0.57738 -5.22832,-0.10607 -0.45027,0.45028 -0.43871,6.85916 0.0132,7.32836 0.41382,0.42962 5.06785,0.27166 5.95299,-0.20205 z m -3.10872,-3.34277 c 0,-1.61818 0.036,-1.71979 0.60855,-1.71979 0.8681,0 1.24354,0.48872 1.24354,1.61877 0,1.45146 -0.22043,1.82081 -1.08664,1.82081 h -0.76545 z m 7.9549,3.56257 c 0.46546,-0.24911 0.51177,-0.58344 0.51177,-3.69486 0,-3.11142 -0.0463,-3.44575 -0.51177,-3.69486 -0.7342,-0.39293 -1.50307,-0.33792 -1.98287,0.14188 -0.60659,0.60659 -0.60659,6.49937 0,7.10595 0.4798,0.4798 1.24867,0.53482 1.98287,0.14189 z m -42.890621,-14.6587 c -0.631472,-0.79136 -1.490378,-2.07129 -1.908678,-2.84427 -0.686675,-1.26893 -0.747818,-1.58532 -0.629501,-3.25752 0.09437,-1.33372 0.342099,-2.25936 0.885135,-3.30729 0.899625,-1.73605 2.084718,-3.58101 3.083408,-4.80027 0.400171,-0.48855 1.167193,-1.43531 1.704493,-2.10391 1.639206,-2.0398 4.219894,-4.99412 6.896436,-7.89491 1.400927,-1.51829 3.433375,-3.72095 4.516552,-4.89479 1.083176,-1.17383 2.589192,-2.78909 3.3467,-3.58945 0.757507,-0.80037 1.941393,-2.08029 2.630855,-2.84427 1.338913,-1.48363 1.63299,-1.63388 1.88953,-0.96534 0.100287,0.26134 -0.102521,0.69226 -0.52923,1.12448 -0.380506,0.38541 -1.248344,1.3556 -1.92853,2.15596 -0.680185,0.80037 -1.457798,1.5627 -1.728031,1.69408 -0.270232,0.13138 -0.491331,0.34728 -0.491331,0.47977 0,0.1325 -0.90833,1.21563 -2.018511,2.40697 -1.110181,1.19133 -2.806822,3.03395 -3.770312,4.09471 -0.963491,1.06076 -2.287583,2.49914 -2.942427,3.19641 -0.654844,0.69726 -1.666875,1.83965 -2.248958,2.53863 -0.582084,0.69899 -1.429309,1.64186 -1.882723,2.09526 -0.453413,0.45341 -1.139516,1.33039 -1.524673,1.94886 -0.385156,0.61846 -0.80983,1.12448 -0.943719,1.12448 -0.133889,0 -0.319216,0.23877 -0.411838,0.53059 -0.09262,0.29183 -0.443381,0.85739 -0.779462,1.2568 -1.111526,1.32097 -2.552462,4.29932 -2.705604,5.59236 -0.115446,0.97477 -0.01938,1.53166 0.419598,2.43234 1.007582,2.06732 1.349047,2.58721 2.073595,3.15714 0.390866,0.30746 0.857589,0.90844 1.037161,1.33552 0.306371,0.72864 0.288949,0.7765 -0.282654,0.7765 -0.420383,0 -0.964938,-0.44588 -1.757281,-1.43884 z m 7.996908,0.48729 c -0.463338,-0.52335 -0.842433,-1.10408 -0.842433,-1.29052 0,-0.18643 -0.185473,-0.4929 -0.412162,-0.68104 -1.529692,-1.26953 -1.555706,-6.41393 -0.04116,-8.14076 0.214905,-0.24503 0.476592,-0.72669 0.581526,-1.07035 0.343282,-1.12427 6.038661,-8.75407 8.026162,-10.75224 0.434233,-0.43656 0.868759,-1.06164 0.965615,-1.38906 0.09686,-0.32743 0.285982,-0.59532 0.420282,-0.59532 0.1343,0 0.632294,-0.5203 1.106649,-1.15624 0.832697,-1.11633 4.954355,-6.10916 5.488821,-6.64896 0.144082,-0.14553 0.501547,-0.49378 0.794369,-0.7739 0.292823,-0.28012 0.532403,-0.7028 0.532403,-0.93927 0,-0.56784 0.518731,-1.06496 1.11125,-1.06496 0.275442,0 0.478176,-0.19523 0.480822,-0.46302 0.005,-0.50584 1.083683,-1.65365 1.554075,-1.65365 0.161391,0 0.293436,0.29369 0.293436,0.65263 0,0.57818 -0.852908,1.73323 -2.9371,3.97758 -0.966909,1.04121 -5.667012,6.54768 -5.926442,6.9432 -0.14552,0.22185 -0.502708,0.66949 -0.79375,0.99474 -0.520705,0.5819 -1.847823,2.21644 -4.251688,5.23657 -0.703273,0.88357 -1.157424,1.69609 -1.07218,1.91823 0.127222,0.33154 2.367272,0.38539 16.031198,0.38539 13.9421,0 15.8833,0.0485 15.8833,0.39687 0,0.34858 -2.02615,0.39688 -16.64783,0.39688 H 83.593485 l -1.0832,1.52135 c -0.59576,0.83675 -1.051659,1.68193 -1.01311,1.87819 0.05805,0.29554 3.07596,0.35029 17.571201,0.31878 9.625614,-0.0209 17.811164,0.0398 18.190104,0.13487 0.37895,0.0951 0.68899,0.33861 0.68899,0.54112 0,0.31107 -2.91399,0.36819 -18.784926,0.36819 H 80.377612 l -0.77985,1.25294 c -0.938811,1.50833 -1.280991,3.87198 -0.812442,5.61204 0.179477,0.66653 0.916267,1.91274 1.744746,2.95109 0.788741,0.98854 1.434074,1.86323 1.434074,1.94376 0,0.0805 -0.275748,0.14642 -0.612775,0.14642 -0.370891,0 -0.945313,-0.37561 -1.455208,-0.95155 z M 115.97563,153.473 c 0.0993,-0.32743 0.39724,-1.01204 0.66217,-1.52136 0.26493,-0.50932 0.65634,-1.34276 0.8698,-1.85208 0.21345,-0.50932 0.70948,-1.62881 1.10229,-2.48775 0.6957,-1.52128 0.71178,-1.66922 0.6212,-5.71416 -0.0551,-2.4607 -0.21101,-4.3037 -0.38266,-4.5237 -0.15932,-0.2042 -0.44569,-0.96658 -0.63637,-1.69418 -0.19069,-0.72761 -0.43227,-1.44198 -0.53685,-1.5875 -0.10458,-0.14552 -0.27042,-0.8196 -0.36852,-1.49795 -0.0981,-0.67835 -0.3946,-1.69038 -0.65887,-2.24896 -0.71994,-1.52166 -1.46375,-4.84032 -1.15423,-5.14983 0.35898,-0.35899 1.13526,0.88658 1.31194,2.10509 0.0774,0.53395 0.36604,1.45489 0.64136,2.04654 0.27532,0.59164 0.50058,1.28044 0.50058,1.53066 0,0.25022 0.16442,0.71864 0.36538,1.04094 0.20095,0.3223 0.43496,1.22369 0.52002,2.00308 0.085,0.77939 0.26223,1.5533 0.39372,1.71979 0.60646,0.76788 0.96984,3.40923 0.96984,7.04959 0,3.43399 -0.0619,3.96203 -0.58997,5.03344 -0.32448,0.65833 -0.66978,1.61083 -0.76732,2.11666 -0.27248,1.41293 -1.97234,4.22699 -2.55335,4.22699 -0.3859,0 -0.45211,-0.12709 -0.31016,-0.59531 z m 6.46976,0.10865 c 0,-0.26766 0.4132,-0.89273 0.91822,-1.38906 1.74662,-1.71655 2.19197,-2.23124 3.13037,-3.61785 1.09179,-1.61324 1.63552,-3.7986 1.38944,-5.58434 -0.30922,-2.24388 -0.9926,-5.45495 -1.22079,-5.73626 -0.12391,-0.15274 -0.30116,-0.80759 -0.39391,-1.45521 -0.0927,-0.64762 -0.32691,-1.53468 -0.52037,-1.97125 -0.19345,-0.43656 -0.43687,-1.15094 -0.54091,-1.5875 -0.10405,-0.43656 -0.28138,-0.91281 -0.39408,-1.05833 -0.11269,-0.14552 -0.34269,-1.02557 -0.51111,-1.95567 -0.16842,-0.9301 -0.47047,-1.94213 -0.67121,-2.24896 -0.39104,-0.59771 -1.18565,-3.40265 -1.18565,-4.18533 0,-0.26047 0.17441,-0.47358 0.38757,-0.47358 0.49043,0 0.93535,0.81667 0.93535,1.71691 0,0.38135 0.22942,1.19698 0.50983,1.81251 0.2804,0.61553 0.59447,1.4722 0.69794,1.90371 0.10346,0.43152 0.2745,0.90364 0.38009,1.04916 0.10559,0.14552 0.27299,0.79446 0.372,1.44208 0.099,0.64762 0.30353,1.32632 0.45448,1.50822 0.15096,0.18189 0.65503,1.85467 1.12016,3.71729 0.46512,1.86262 0.93121,3.52324 1.03574,3.69026 0.38466,0.61463 0.7695,4.5085 0.60616,6.13331 -0.21111,2.10007 -1.23391,3.98244 -3.37759,6.21615 -0.86266,0.89889 -1.68403,1.84272 -1.82525,2.09738 -0.34683,0.62543 -1.29648,0.60812 -1.29648,-0.0236 z"
         id="path64"
         inkscape:connector-curvature="0" />
      <path
         style="fill:#3d47cb;stroke-width:0.26458335"
         d="m 65.417882,182.049 c -0.06944,-0.18245 -0.09564,-16.22658 -0.05823,-35.65361 l 0.06803,-35.32187 H 99.426641 133.4256 v 35.58645 35.58646 l -33.940733,0.0671 c -27.01322,0.0534 -33.966501,-5.3e-4 -34.066985,-0.26458 z M 131.30893,146.52768 V 112.9256 H 99.162057 67.015182 l -0.06806,33.3375 c -0.03743,18.33563 -0.01122,33.48681 0.05825,33.66929 0.100496,0.26399 6.683464,0.31805 32.214932,0.26458 l 32.088626,-0.0672 z m -61.515623,17.4625 v -6.74687 h 29.765625 29.765628 v 6.74687 6.74688 H 99.558932 69.793307 Z m 15.456486,4.46961 c 0.302727,-0.11617 0.418514,-0.51877 0.418514,-1.45521 0,-1.26206 0.01995,-1.2946 0.79375,-1.2946 0.758883,0 0.79375,0.05 0.79375,1.1377 0,1.42771 0.343191,1.77271 1.7634,1.77271 0.844826,0 1.197229,-0.12861 1.402292,-0.51177 0.356232,-0.66563 0.356232,-6.77749 0,-7.44312 -0.205063,-0.38316 -0.557466,-0.51177 -1.402292,-0.51177 -1.420209,0 -1.7634,0.345 -1.7634,1.7727 0,1.08773 -0.03487,1.13771 -0.79375,1.13771 -0.773797,0 -0.79375,-0.0325 -0.79375,-1.29461 0,-0.93644 -0.115787,-1.33904 -0.418514,-1.45521 -0.712165,-0.27328 -2.369572,-0.17709 -2.703569,0.15691 -0.441654,0.44165 -0.441654,7.39001 0,7.83166 0.333997,0.334 1.991404,0.43019 2.703569,0.1569 z m 13.229166,0 c 0.576995,-0.22141 0.576995,-2.10322 0,-2.32463 -0.230183,-0.0883 -1.182683,-0.1606 -2.116667,-0.1606 -0.955712,0 -1.698152,-0.11568 -1.698152,-0.26458 0,-0.14873 0.738855,-0.26459 1.687397,-0.26459 1.034362,0 1.788374,-0.12799 1.948325,-0.33073 0.143513,-0.1819 0.336722,-1.18539 0.429355,-2.22997 0.237617,-2.67953 0.16419,-2.73096 -3.898767,-2.73096 -2.163705,0 -3.340651,0.10517 -3.552976,0.3175 -0.441653,0.44165 -0.441653,7.39001 0,7.83166 0.333885,0.33389 6.39608,0.46597 7.201485,0.1569 z m 3.805181,-0.1569 c 0.44165,-0.44165 0.44165,-7.39001 0,-7.83166 -0.41076,-0.41076 -2.12924,-0.41076 -2.539999,0 -0.441654,0.44165 -0.441654,7.39001 0,7.83166 0.410759,0.41076 2.129239,0.41076 2.539999,0 z m 7.44819,-0.0282 c 1.30722,-0.45217 1.99439,-1.75165 1.99609,-3.77477 0.002,-1.89102 -0.75018,-3.24508 -2.18027,-3.92705 -1.08082,-0.5154 -5.34719,-0.58975 -5.83526,-0.10168 -0.44165,0.44165 -0.44165,7.39001 0,7.83166 0.41593,0.41593 4.79479,0.39544 6.01944,-0.0282 z m -2.63277,-3.75538 c 0,-1.2514 0.0701,-1.45521 0.50086,-1.45521 0.54533,0 0.82205,0.48986 0.82205,1.45521 0,0.96535 -0.27672,1.45521 -0.82205,1.45521 -0.43072,0 -0.50086,-0.2038 -0.50086,-1.45521 z m 8.14916,3.78354 c 0.44166,-0.44165 0.44166,-7.39001 0,-7.83166 -0.41124,-0.41125 -2.39333,-0.41125 -2.80458,0 -0.44165,0.44165 -0.44165,7.39001 0,7.83166 0.41125,0.41125 2.39334,0.41125 2.80458,0 z M 72.114793,153.13401 c -0.638533,-0.80491 -1.497015,-2.12714 -1.907739,-2.93829 -0.644383,-1.27261 -0.726191,-1.67959 -0.596667,-2.9683 0.211185,-2.10123 1.817204,-5.1588 4.085524,-7.7781 0.472943,-0.54613 0.859896,-1.10251 0.859896,-1.23642 0,-0.13391 0.327422,-0.58818 0.727604,-1.00948 0.400183,-0.42131 1.397145,-1.5318 2.215473,-2.46775 1.878553,-2.14858 3.810071,-4.30859 5.070637,-5.67049 0.538775,-0.58208 0.98016,-1.1396 0.980855,-1.23894 6.88e-4,-0.0993 0.233299,-0.25425 0.516897,-0.34426 0.283598,-0.09 0.585503,-0.3838 0.670901,-0.65287 0.0854,-0.26906 0.924926,-1.24056 1.865618,-2.15888 0.940691,-0.91832 1.710348,-1.82318 1.710348,-2.0108 0,-0.18762 0.0498,-0.34112 0.110652,-0.34112 0.06086,0 0.328427,-0.0836 0.594595,-0.18571 0.457687,-0.17563 0.456235,-0.14333 -0.0268,0.59531 -0.280911,0.42956 -1.173557,1.44304 -1.983659,2.25218 -0.810102,0.80914 -2.306351,2.39403 -3.324997,3.52198 -1.018646,1.12795 -2.387864,2.63917 -3.042708,3.35826 -0.654844,0.7191 -1.666875,1.85429 -2.248959,2.52264 -0.582083,0.66836 -1.429308,1.59074 -1.882722,2.04975 -0.453414,0.459 -1.139517,1.34056 -1.524673,1.95903 -0.385156,0.61846 -0.80983,1.12447 -0.943719,1.12447 -0.133889,0 -0.328042,0.2679 -0.431452,0.59532 -0.10341,0.32742 -0.587683,1.08382 -1.076163,1.68089 -0.48848,0.59707 -0.888146,1.24254 -0.888146,1.43438 0,0.19183 -0.189914,0.55864 -0.422031,0.81513 -1.490327,1.64679 -1.481761,5.51454 0.01553,7.01183 0.223575,0.22358 0.4065,0.56601 0.4065,0.76096 0,0.19495 0.386954,0.67831 0.859896,1.07412 0.472943,0.39582 0.945356,0.94219 1.049808,1.21415 0.354613,0.92331 -0.275354,0.49949 -1.440301,-0.96899 z m 8.233068,0.73398 c -0.378686,-0.40122 -0.773275,-0.99653 -0.876866,-1.32292 -0.103591,-0.32638 -0.303618,-0.59343 -0.444503,-0.59343 -0.140886,0 -0.490051,-0.54565 -0.775921,-1.21256 -0.861309,-2.00935 -0.554465,-5.34359 0.614409,-6.67631 0.214905,-0.24503 0.475921,-0.72457 0.580035,-1.06565 0.210862,-0.69079 1.11888,-2.07387 2.831742,-4.31326 0.628425,-0.8216 1.695322,-2.21628 2.370882,-3.09927 0.675559,-0.883 1.4197,-1.79686 1.653646,-2.03081 0.233945,-0.23394 0.425355,-0.53172 0.425355,-0.66173 0,-0.13001 0.238125,-0.36382 0.529167,-0.51958 0.291042,-0.15576 0.529167,-0.22728 0.529167,-0.15893 0,0.0684 -0.721687,1.03243 -1.603748,2.14241 -1.074045,1.35158 -1.576534,2.20935 -1.521354,2.59703 l 0.08239,0.57887 16.007298,0.13539 16.00729,0.1354 -16.68198,0.063 c -17.369661,0.0656 -17.316983,0.0621 -17.316983,1.1682 0,0.25858 -0.285615,0.65729 -0.634701,0.88602 -0.708018,0.46391 -1.362157,1.79386 -1.09496,2.22619 0.118852,0.1923 5.931706,0.30052 18.480173,0.34405 l 18.306781,0.0635 -18.909938,0.13494 c -18.572035,0.13253 -18.914861,0.14439 -19.185502,0.6641 -0.15156,0.29104 -0.476344,0.82683 -0.721741,1.19063 -0.245397,0.3638 -0.526919,1.45179 -0.625603,2.41775 -0.244768,2.39588 0.201783,4.1414 1.352321,5.28608 0.494836,0.49232 0.903482,1.00481 0.908103,1.13888 0.0046,0.13406 0.205448,0.46148 0.446283,0.7276 0.709116,0.78356 0.02245,0.55291 -0.731245,-0.24563 z m 36.136469,-0.72572 c 0.0998,-0.43657 0.35077,-0.98172 0.55772,-1.21146 0.20694,-0.22974 0.3803,-0.5274 0.38523,-0.66146 0.005,-0.13406 0.23903,-0.72 0.52019,-1.30208 0.28117,-0.58209 0.51526,-1.22756 0.52019,-1.43438 0.005,-0.20682 0.21734,-0.6066 0.472,-0.8884 0.40532,-0.44851 0.46302,-1.11374 0.46302,-5.33835 0,-3.09369 -0.10398,-4.95918 -0.28967,-5.19702 -0.15932,-0.20406 -0.44569,-0.96633 -0.63637,-1.69394 -0.19068,-0.7276 -0.43226,-1.44198 -0.53685,-1.5875 -0.10458,-0.14552 -0.27121,-0.82488 -0.37028,-1.50969 -0.0991,-0.68482 -0.36744,-1.6206 -0.59638,-2.07951 -0.43233,-0.86662 -1.44762,-4.52807 -1.29729,-4.6784 0.17457,-0.17457 0.94872,1.75498 0.94872,2.36467 0,0.34742 0.23812,1.09874 0.52916,1.6696 0.29105,0.57086 0.52917,1.25507 0.52917,1.52046 0,0.26539 0.16442,0.74623 0.36538,1.06854 0.20095,0.3223 0.43496,1.22368 0.52001,2.00307 0.0851,0.7794 0.26224,1.5533 0.39373,1.7198 0.5898,0.74678 0.96984,3.40551 0.96984,6.785 0,3.16032 -0.068,3.7098 -0.58997,4.76885 -0.32448,0.65834 -0.672,1.61084 -0.77225,2.11667 -0.1905,0.96113 -1.00763,2.65227 -1.80163,3.7287 l -0.46514,0.63058 z m 6.2254,0.46302 c -1.3e-4,-0.10914 0.35565,-0.55563 0.79063,-0.99219 1.60494,-1.61078 2.91625,-3.16283 3.06307,-3.62542 0.083,-0.26159 0.25214,-0.47562 0.37582,-0.47562 0.54473,0 1.19428,-2.55809 1.17572,-4.63021 -0.0188,-2.09536 -0.75308,-6.35644 -1.18776,-6.89229 -0.1239,-0.15274 -0.30116,-0.80759 -0.3939,-1.45521 -0.0927,-0.64763 -0.32691,-1.53469 -0.52037,-1.97125 -0.19346,-0.43656 -0.43687,-1.15094 -0.54092,-1.5875 -0.10405,-0.43656 -0.28138,-0.91281 -0.39407,-1.05833 -0.1127,-0.14553 -0.34426,-1.03849 -0.51459,-1.98438 -0.17033,-0.94588 -0.46432,-1.89838 -0.6533,-2.11667 -0.40099,-0.46314 -1.3089,-3.94813 -1.08651,-4.17052 0.27191,-0.27191 0.4279,0.10694 0.67882,1.64865 0.13598,0.83549 0.35821,1.65541 0.49384,1.82204 0.13564,0.16663 0.39882,0.83874 0.58485,1.49358 0.18602,0.65485 0.42019,1.30969 0.52037,1.45521 0.10017,0.14552 0.26314,0.79446 0.36215,1.44208 0.099,0.64763 0.30353,1.32632 0.45449,1.50822 0.15096,0.18189 0.65503,1.85468 1.12015,3.71729 0.46513,1.86262 0.93121,3.52324 1.03575,3.69027 0.37866,0.60504 0.76255,4.48532 0.58463,5.90934 -0.25602,2.04916 -2.42651,5.62914 -4.09119,6.74796 -0.42151,0.28329 -0.89025,0.78695 -1.04165,1.11923 -0.25818,0.56663 -0.8155,0.84372 -0.81603,0.40572 z M 88.328841,131.27248 c -0.0081,-0.2412 0.402727,-0.89604 0.912915,-1.45521 0.864418,-0.9474 4.965137,-5.83332 6.238325,-7.43282 0.144791,-0.1819 0.391319,-0.33073 0.547838,-0.33073 0.388057,0 -0.426778,1.1984 -1.699492,2.49949 -0.576951,0.58981 -1.243563,1.38254 -1.481363,1.76162 -0.237797,0.37907 -0.819205,1.01474 -1.292016,1.41258 -0.472813,0.39784 -0.859658,0.82642 -0.859658,0.95239 0,0.12597 -0.26789,0.50796 -0.595312,0.84887 -0.327422,0.34091 -0.856589,0.9714 -1.175925,1.40109 -0.413136,0.5559 -0.584853,0.65476 -0.595312,0.34272 z m 1.618821,-10.26362 c 0.338489,-0.42915 0.817705,-0.85196 1.064924,-0.93957 0.247216,-0.0876 0.526862,-0.40309 0.621432,-0.70105 0.213461,-0.67256 2.219897,-2.71085 2.445957,-2.48479 0.09102,0.091 -0.153321,0.48789 -0.542975,0.88194 -0.389655,0.39405 -1.267042,1.3713 -1.949749,2.17167 -0.682707,0.80036 -1.371024,1.54268 -1.529594,1.64959 -0.639088,0.43089 -0.690904,0.15871 -0.109995,-0.57779 z m 6.861281,-0.13403 c 0.296701,-0.50287 0.762844,-0.98521 1.035875,-1.07187 0.273032,-0.0867 0.576607,-0.4102 0.674614,-0.71899 0.09801,-0.30879 0.401754,-0.8014 0.674994,-1.09469 0.423908,-0.45501 0.496798,-0.469 0.496798,-0.0953 0,0.24086 -0.540036,1.06699 -1.200081,1.83583 -0.660046,0.76884 -1.319583,1.54672 -1.465641,1.72862 -0.569082,0.70874 -0.727372,0.28218 -0.216559,-0.58358 z"
         id="path62"
         inkscape:connector-curvature="0" />
      <path
         style="fill:#ec2129;stroke-width:0.26458335"
         d="m 65.417882,182.049 c -0.06944,-0.18245 -0.09564,-16.22658 -0.05823,-35.65361 l 0.06803,-35.32187 H 99.426641 133.4256 v 35.58645 35.58646 l -33.940733,0.0671 c -27.01322,0.0534 -33.966501,-5.3e-4 -34.066985,-0.26458 z M 131.30893,146.52768 V 112.9256 H 99.162057 67.015182 l -0.06806,33.3375 c -0.03743,18.33563 -0.01122,33.48681 0.05825,33.66929 0.100496,0.26399 6.683464,0.31805 32.214932,0.26458 l 32.088626,-0.0672 z"
         id="path60"
         inkscape:connector-curvature="0" />
    </g>
  </g>
</svg>
