<svg id="Groupe_1" data-name="Groupe 1" xmlns="http://www.w3.org/2000/svg" width="263.537" height="361.796" viewBox="0 0 263.537 361.796">
  <g id="Groupe_1-2" data-name="Groupe 1" transform="translate(0 0)">
    <path id="Tracé_1" data-name="Tracé 1" d="M33.138,0s-1.342,6.337,0,9.454C38.6,31.3,50.611,49.167,59.81,62.051,71.382,78.257,48.236,92.922,31.074,92.922A30.973,30.973,0,0,1,0,62.051C0,45,33.138,0,33.138,0Z" transform="matrix(0.996, -0.087, 0.087, 0.996, 79.913, 5.484)" fill="#fff"/>
    <path id="Tracé_2" data-name="Tracé 2" d="M27.352,0s-1.108,10.384,0,15.492c4.505,35.8,14.423,65.078,22.016,86.191,9.551,26.557-9.554,50.588-23.72,50.588S0,129.622,0,101.683,27.352,0,27.352,0Z" transform="matrix(-0.946, -0.326, 0.326, -0.946, 78.578, 361.45)" fill="#fff"/>
    <path id="Tracé_3" data-name="Tracé 3" d="M28.556,0s-1.157,10.326,0,15.407c4.7,35.606,15.057,64.718,22.985,85.714,9.972,26.41-9.974,50.308-24.763,50.308S0,128.905,0,101.121,28.556,0,28.556,0Z" transform="matrix(-0.927, 0.375, -0.375, -0.927, 237.224, 341.483)" fill="#fff"/>
    <path id="Tracé_4" data-name="Tracé 4" d="M39.457,0s-1.6,10.331,0,15.414c6.5,35.624,20.806,64.751,31.76,85.757C85,127.6,57.435,151.5,37,151.5S0,128.97,0,101.171,39.457,0,39.457,0Z" transform="matrix(-0.999, 0.035, -0.035, -0.999, 164.525, 246.046)" fill="#fff"/>
    <path id="Tracé_5" data-name="Tracé 5" d="M24.362,0s-.987,6.763,0,10.091c4.013,23.32,12.846,42.387,19.609,56.139,8.507,17.3-8.51,32.949-21.126,32.949S0,84.427,0,66.229,24.362,0,24.362,0Z" transform="translate(253.13 71.326) rotate(77)" fill="#fff"/>
    <path id="Tracé_6" data-name="Tracé 6" d="M26.316,0s-1.066,5.819,0,8.682C30.65,28.747,40.192,45.153,47.5,56.985c9.189,14.883-9.192,28.35-22.821,28.35S0,72.642,0,56.985,26.316,0,26.316,0Z" transform="matrix(-0.574, -0.819, 0.819, -0.574, 28.663, 217.228)" fill="#fff"/>
  </g>
</svg>
