<?xml version="1.0" encoding="UTF-8" standalone="no"?>
<!-- Created with Inkscape (http://www.inkscape.org/) -->

<svg
   xmlns:dc="http://purl.org/dc/elements/1.1/"
   xmlns:cc="http://creativecommons.org/ns#"
   xmlns:rdf="http://www.w3.org/1999/02/22-rdf-syntax-ns#"
   xmlns:svg="http://www.w3.org/2000/svg"
   xmlns="http://www.w3.org/2000/svg"
   xmlns:sodipodi="http://sodipodi.sourceforge.net/DTD/sodipodi-0.dtd"
   xmlns:inkscape="http://www.inkscape.org/namespaces/inkscape"
   width="210mm"
   height="297mm"
   viewBox="0 0 210 297"
   version="1.1"
   id="svg8"
   inkscape:version="0.92.5 (2060ec1f9f, 2020-04-08)"
   sodipodi:docname="dessin.svg">
  <defs
     id="defs2" />
  <sodipodi:namedview
     id="base"
     pagecolor="#ffffff"
     bordercolor="#666666"
     borderopacity="1.0"
     inkscape:pageopacity="0.0"
     inkscape:pageshadow="2"
     inkscape:zoom="0.35"
     inkscape:cx="-121.42857"
     inkscape:cy="560"
     inkscape:document-units="mm"
     inkscape:current-layer="layer1"
     showgrid="false"
     inkscape:window-width="1600"
     inkscape:window-height="837"
     inkscape:window-x="-8"
     inkscape:window-y="-8"
     inkscape:window-maximized="1" />
  <metadata
     id="metadata5">
    <rdf:RDF>
      <cc:Work
         rdf:about="">
        <dc:format>image/svg+xml</dc:format>
        <dc:type
           rdf:resource="http://purl.org/dc/dcmitype/StillImage" />
        <dc:title></dc:title>
      </cc:Work>
    </rdf:RDF>
  </metadata>
  <g
     inkscape:label="Calque 1"
     inkscape:groupmode="layer"
     id="layer1">
    <g
       id="g21"
       transform="translate(-12.095233,-1.5119048)"
       inkscape:export-xdpi="96"
       inkscape:export-ydpi="96">
      <path
         style="fill:#fcfcfc;stroke-width:0.32147837"
         d="M 36.785709,134.47024 V 75.25 h 63 63.000001 v 59.22024 59.22024 h -63.000001 -63 z"
         id="path37"
         inkscape:connector-curvature="0" />
      <path
         style="fill:#cbd9ec;stroke-width:0.32147837"
         d="m 89.969812,179.95809 c -5.164827,-0.4709 -8.918314,-1.44707 -8.918314,-2.31941 0,-0.65605 2.594055,-1.4537 6.523899,-2.00604 3.876974,-0.5449 4.031025,-0.5938 3.002835,-0.95302 -7.9833,-2.7892 -13.549701,-7.52474 -17.014506,-14.47484 -4.382426,-8.79078 -3.125446,-18.70487 3.949096,-31.14746 0.890223,-1.56571 3.905953,-6.42334 6.701621,-10.79472 6.574309,-10.27979 10.154572,-17.00226 12.226662,-22.957356 0.885452,-2.544747 1.709111,-5.281572 1.830353,-6.081833 0.245895,-1.62306 0.875925,-2.384838 1.442043,-1.7436 0.191049,0.216398 0.662839,1.554964 1.048439,2.97459 1.53542,5.65294 4.97188,13.150939 9.03087,19.704369 3.52636,5.6935 5.15763,8.28142 7.00422,11.11187 4.69243,7.19254 8.11877,14.27909 9.54668,19.74499 0.65729,2.51605 0.77531,3.7807 0.7854,8.41551 0.0117,5.36929 -0.005,5.50003 -1.07062,8.36894 -1.46906,3.95523 -3.33069,6.83381 -6.32458,9.77946 -2.85908,2.81302 -6.42062,5.14252 -9.72619,6.36161 -1.24526,0.45925 -2.26412,0.93231 -2.26412,1.05125 0,0.11893 1.15639,0.30599 2.56974,0.41568 3.34221,0.2594 6.92576,0.99392 7.96157,1.63189 0.803,0.49458 0.80772,0.51992 0.20201,1.08707 -0.73784,0.69088 -3.99947,1.37668 -8.70722,1.83081 -3.85671,0.37202 -15.720473,0.37217 -19.799888,2.4e-4 z m 29.388108,-18.44914 c 1.16614,-1.17156 1.88768,-2.44892 3.45805,-6.12192 2.12541,-4.97122 2.61326,-6.88893 2.58554,-10.16364 -0.0334,-3.94263 -1.58336,-8.28627 -3.78981,-10.62052 -0.62639,-0.66268 -2.64913,-3.67017 -3.4915,-5.19132 -0.25917,-0.46802 -0.60735,-0.93003 -0.77373,-1.02668 -0.16638,-0.0967 -0.83327,-1.06791 -1.48199,-2.15832 -0.64872,-1.09042 -1.40184,-2.15605 -1.6736,-2.36806 -0.27177,-0.21201 -1.09145,-1.45263 -1.82153,-2.75692 -2.40688,-4.29994 -3.33956,-4.82294 -1.42797,-0.80072 2.92414,6.15271 4.52978,9.7899 5.08553,11.52006 0.69406,2.16072 1.05218,4.51944 0.68619,4.51944 -0.36288,0 -1.70218,1.23726 -2.7039,2.49789 -2.42601,3.05305 -3.77862,6.90353 -3.17368,9.03448 0.17034,0.59999 0.32769,1.93817 0.34968,2.97373 0.0478,2.25302 0.22728,2.53224 3.97603,6.18716 1.56336,1.52423 2.75927,2.8979 2.65757,3.05258 -0.10171,0.15469 -0.042,0.45043 0.13262,0.6572 0.17465,0.20678 0.2753,0.62141 0.22368,0.92141 -0.12851,0.74674 0.34674,0.68412 1.18282,-0.15585 z m -37.100608,-7.65188 c 2.005409,-2.07157 3.195589,-4.02754 3.431401,-5.63923 0.269123,-1.83938 -0.05729,-2.96419 -1.878083,-6.47188 l -1.319711,-2.54238 0.16563,-3.06796 c 0.169427,-3.13829 0.39452,-4.15886 0.917267,-4.15886 0.162855,0 0.292784,-0.31559 0.288729,-0.7013 l -0.0074,-0.70129 -0.650306,0.77922 c -0.357667,0.42856 -0.745807,1.04947 -0.862529,1.37978 -0.116726,0.33032 -0.576931,0.96148 -1.022679,1.40258 -2.285239,2.26145 -5.638321,11.31682 -5.166365,13.95236 0.288228,1.60955 2.204662,5.70701 3.200284,6.8424 0.901427,1.02798 1.019721,1.0768 1.406007,0.58022 0.231973,-0.29821 0.90595,-1.04236 1.497726,-1.65366 z m 18.937608,-52.88473 c 0.64267,-0.25565 0.7382,-0.82702 0.27567,-1.648866 -0.16752,-0.297672 -0.63636,-1.768482 -1.04186,-3.268469 -0.4055,-1.499986 -0.836686,-2.727248 -0.958187,-2.727248 -0.1215,0 -0.460417,0.876616 -0.753148,1.948035 -0.292731,1.071419 -0.763113,2.7117 -1.045296,3.645071 -0.339683,1.123557 -0.403555,1.821067 -0.189013,2.064067 0.341751,0.38708 2.727464,0.37899 3.711834,-0.0126 z"
         id="path35"
         inkscape:connector-curvature="0" />
      <path
         style="fill:#b3cee7;stroke-width:0.32147837"
         d="m 91.993604,179.47255 c -2.451443,-0.24019 -6.077491,-1.08239 -6.443106,-1.49649 -0.732319,-0.82946 1.374404,-1.56737 5.448369,-1.9084 1.276579,-0.10685 2.544868,-0.26518 2.818421,-0.35184 0.273553,-0.0867 -1.110604,-0.69256 -3.075905,-1.34646 -4.270532,-1.4209 -7.290175,-3.05429 -10.135938,-5.48275 -4.079518,-3.4813 -6.861903,-7.70723 -8.397492,-12.75423 -0.632825,-2.07991 -0.756278,-3.21724 -0.744315,-6.85708 0.02835,-8.62355 2.365521,-14.25145 12.555449,-30.23349 8.820988,-13.83497 12.009534,-20.15923 13.944848,-27.658618 0.430837,-1.669506 0.876582,-3.177285 0.990545,-3.350619 0.415028,-0.631239 0.813493,-0.286434 1.16662,1.009509 2.43473,8.935361 5.39824,15.048208 13.27121,27.374598 5.64258,8.83436 8.09452,13.00571 9.60252,16.33618 1.20464,2.6605 2.78241,7.32772 2.47716,7.32772 -0.074,0 -0.64074,-1.02971 -1.25933,-2.28825 -0.61859,-1.25853 -2.47266,-4.30915 -4.12014,-6.77916 -10.4101,-15.60742 -15.99774,-25.67274 -18.88429,-34.017311 -0.87357,-2.525359 -1.688364,-4.594171 -1.810647,-4.59736 -0.122287,-0.0032 -0.32518,0.450042 -0.450875,1.00718 -1.352739,5.996002 -5.705986,15.233501 -11.356566,24.098381 -3.876462,6.08157 -7.061663,11.60804 -8.650254,15.0086 -1.833115,3.92398 -4.262219,10.79249 -4.736698,13.39342 -0.656384,3.59808 0.379485,8.19342 1.677016,7.43962 0.19987,-0.11612 0.363398,-0.55349 0.363398,-0.97194 0,-1.18115 0.472331,-0.90837 1.499784,0.86614 1.278257,2.20768 3.22433,4.12589 5.010334,4.93861 0.815313,0.371 1.520999,0.62343 1.568193,0.56095 0.04719,-0.0625 1.002177,-1.86683 2.122191,-4.00966 2.626467,-5.02503 3.182236,-7.06103 2.975145,-10.89915 -0.08758,-1.62314 -0.04416,-3.16598 0.0965,-3.42854 0.380713,-0.71067 1.459601,-2.95331 2.853701,-5.93187 0.682005,-1.45713 1.56372,-3.0701 1.959373,-3.58438 0.39565,-0.51428 0.825917,-1.25189 0.956145,-1.63914 0.130231,-0.38723 0.897753,-1.22342 1.705605,-1.85819 0.807853,-0.63477 1.468822,-1.27726 1.468822,-1.42776 0,-0.36839 1.392721,-1.44112 1.887823,-1.4541 0.21766,-0.006 0.66016,0.41041 0.98334,0.92469 0.32318,0.51428 0.70464,0.93506 0.84769,0.93506 0.14305,0 0.26009,0.24931 0.26009,0.55402 0,0.30471 0.23302,0.86673 0.51781,1.24894 0.2848,0.38221 0.47131,0.99923 0.41448,1.37115 -0.0823,0.53827 0.12415,0.73224 1.01189,0.95092 1.02638,0.25282 1.09914,0.35038 0.91314,1.22457 -0.15528,0.7298 -0.0962,0.91166 0.25505,0.78497 0.9281,-0.33478 1.17218,2.64233 0.60091,7.32934 -0.63536,5.21277 -0.33177,8.47572 1.04108,11.18931 0.97351,1.92428 1.07434,2.88004 0.49544,4.69633 -0.34161,1.07176 -0.30268,1.35544 0.33158,2.41623 0.39524,0.66105 0.72,1.3932 0.72168,1.627 0.002,0.2338 0.66667,1.12638 1.47775,1.98352 1.59654,1.68721 2.01196,2.74075 1.66545,4.22375 l -0.22222,0.95106 1.17164,-0.46017 c 0.6444,-0.2531 1.73705,-0.82133 2.42811,-1.26274 0.69106,-0.44142 1.51678,-0.80257 1.83494,-0.80257 0.76491,0 3.09444,-2.80087 4.27736,-5.14281 3.28235,-6.49839 4.57947,-10.43449 4.62213,-14.02585 0.045,-3.78753 0.69574,-1.15409 0.88573,3.58438 0.19231,4.79643 -0.40556,7.95966 -2.21242,11.70554 -3.04315,6.30885 -9.39603,11.5464 -16.82836,13.87393 -1.69517,0.53086 -3.08212,1.00645 -3.08212,1.05686 0,0.0504 1.45481,0.25686 3.2329,0.45878 7.50434,0.8522 8.76875,2.0821 3.23289,3.14464 -1.69471,0.32529 -16.834591,0.65989 -19.231572,0.42503 z m -9.449815,-49.68589 c -2.38e-4,-0.61282 5.527037,-11.1119 5.992153,-11.38212 0.943139,-0.54792 0.588967,0.51955 -1.367684,4.12221 -2.496859,4.5973 -4.624203,7.937 -4.624469,7.25991 z m 18.069851,-5.50023 c -0.759437,-0.14292 -1.945614,-1.86371 -1.473684,-2.13788 0.170299,-0.0989 0.832893,0.29781 1.472434,0.88166 1.12143,1.02379 1.4353,1.51261 0.91411,1.42365 -0.13678,-0.0234 -0.54756,-0.0987 -0.91286,-0.16743 z m -11.050288,-8.40751 c 0.06425,-0.3136 0.389771,-0.61959 0.723383,-0.67998 0.438042,-0.0793 0.574112,0.0486 0.489752,0.46036 -0.06425,0.3136 -0.389771,0.61959 -0.723383,0.67999 -0.438042,0.0793 -0.574112,-0.0486 -0.489752,-0.46037 z"
         id="path33"
         inkscape:connector-curvature="0" />
      <path
         style="fill:#9ab0d5;stroke-width:0.32147837"
         d="m 96.635709,179.45333 c -3.787212,-0.15958 -7.830618,-0.72647 -8.904314,-1.24838 -0.966672,-0.4699 -0.979909,-0.50409 -0.360148,-0.93019 0.826179,-0.56803 1.287286,-0.66905 5.285515,-1.15797 l 3.315789,-0.40547 -1.492105,-0.37803 c -8.873006,-2.24798 -14.090242,-5.5284 -18.526602,-11.64891 -4.907492,-6.77049 -5.797837,-15.8154 -2.476875,-25.16223 1.339754,-3.77073 5.044088,-10.53901 10.064684,-18.38944 2.576375,-4.02854 5.711733,-9.07784 6.967462,-11.22068 3.752757,-6.40388 6.925858,-13.94914 7.962931,-18.934891 0.229254,-1.102134 0.578844,-1.948035 0.805077,-1.948035 0.227298,0 0.790047,1.378774 1.303957,3.194777 2.05223,7.251961 5.59904,14.213259 13.87039,27.223289 5.41718,8.5207 7.95062,12.99376 9.2117,16.2643 0.89728,2.32701 0.74604,2.76303 -0.32053,0.9241 -0.42145,-0.72664 -2.02644,-3.21466 -3.56665,-5.52893 -4.77493,-7.17465 -11.68662,-18.63814 -14.18832,-23.53225 -2.37132,-4.63906 -4.30609,-9.257419 -5.3209,-12.701183 -0.290463,-0.985705 -0.629439,-1.791507 -0.753274,-1.790671 -0.123835,8.42e-4 -0.798213,1.719003 -1.498618,3.818147 -2.342429,7.020387 -5.158002,12.579747 -11.483182,22.673597 -3.90416,6.23034 -7.686782,13.20713 -9.378793,17.29854 -3.256726,7.87502 -3.851456,10.62326 -3.235767,14.95241 0.59408,4.17718 2.320818,7.48726 2.330994,4.46841 0.0053,-1.56099 0.292469,-2.74564 0.665651,-2.74564 0.14369,0 0.712905,0.75226 1.264921,1.67169 1.683134,2.80343 4.750309,4.88707 7.8882,5.35873 l 1.339864,0.2014 0.676918,-1.51203 c 0.372304,-0.83162 1.007676,-2.49385 1.411933,-3.69384 0.404258,-1.19999 1.010364,-2.75078 1.3469,-3.4462 0.336537,-0.69542 0.784828,-1.91001 0.9962,-2.69908 0.211371,-0.78907 0.866687,-2.32396 1.456255,-3.41088 0.81444,-1.50147 1.264801,-2.00021 1.874763,-2.07617 0.441548,-0.055 0.955465,-0.26537 1.142035,-0.46753 0.780192,-0.84537 3.72077,-2.17909 4.32439,-1.96136 0.21348,0.077 0.47116,0.46711 0.57264,0.86691 0.10147,0.39979 0.40882,1.6601 0.683,2.80069 0.53138,2.21051 1.1464,4.01801 2.04894,6.0217 0.30681,0.68112 0.61769,1.54867 0.69085,1.92789 0.0731,0.37922 0.43901,1.36055 0.81302,2.18073 0.60802,1.33335 0.65568,1.86298 0.45004,5.00193 l -0.22999,3.51067 1.0078,0.96896 c 0.5543,0.53293 1.16954,1.55214 1.36721,2.26491 0.6015,2.16884 0.70136,2.22727 2.73216,1.59858 0.97882,-0.30302 2.56026,-1.01764 3.51431,-1.58805 0.95406,-0.57041 1.94125,-0.96258 2.19376,-0.8715 0.52921,0.1909 2.8499,-2.16136 4.08664,-4.14224 1.52952,-2.44982 4.9018,-10.2173 5.4791,-12.62019 l 0.39688,-1.6519 0.27083,2.02595 c 0.32546,2.43462 -0.17194,6.54836 -1.10736,9.15853 -2.88901,8.06138 -9.32667,13.74289 -18.85712,16.64223 -3.18381,0.96858 -3.62162,1.17347 -2.65263,1.24142 2.67829,0.18783 6.87291,0.74492 7.875,1.04588 1.35624,0.40734 1.3823,1.04956 0.0602,1.48281 -2.17418,0.71245 -10.38702,1.28574 -15.395691,1.07469 z"
         id="path31"
         inkscape:connector-curvature="0" />
      <path
         style="fill:#6094c3;stroke-width:0.32147837"
         d="m 95.640972,178.71163 c -2.883778,-0.26601 -4.625248,-0.75012 -4.327496,-1.20298 0.880362,-1.339 16.098544,-1.32713 16.098544,0.0126 0,0.47368 -1.18016,0.8444 -3.76314,1.18211 -2.84196,0.37156 -4.056336,0.37282 -8.007908,0.008 z m -0.5324,-3.58402 c -12.875976,-2.19124 -22.257949,-11.60363 -23.35281,-23.42852 -0.387891,-4.18935 0.744856,-10.54422 2.682119,-15.04705 1.671015,-3.884 4.729089,-9.249 9.7714,-17.1427 8.972151,-14.04584 12.794733,-21.914034 14.732304,-30.324162 0.268675,-1.166199 0.734136,-0.820334 1.01746,0.756029 0.291825,1.623686 2.024635,6.438091 3.630805,10.087793 1.77405,4.03116 4.52519,8.79687 10.70577,18.54528 5.51262,8.69485 8.53176,14.0345 8.30189,14.68272 -0.12851,0.3624 -4.22747,-5.49503 -6.23969,-8.91654 -0.60491,-1.02856 -2.62223,-4.32463 -4.48295,-7.32461 -6.27879,-10.1231 -9.25998,-16.28907 -11.52022,-23.827223 -0.25425,-0.847943 -0.627126,-1.593372 -0.828627,-1.656508 -0.201497,-0.06314 -0.529605,0.490376 -0.729126,1.230029 -1.78973,6.634787 -6.028128,15.367232 -12.30132,25.344602 -6.581965,10.46848 -12.090075,22.1173 -12.967956,27.42529 -0.571954,3.45823 0.04527,7.69813 1.674762,11.5044 1.294086,3.02282 2.87853,5.60073 4.060141,6.60592 0.622231,0.52932 0.601146,0.40316 -0.213822,-1.27958 -1.264307,-2.61053 -2.14194,-5.6395 -2.14194,-7.39248 0,-1.52933 0.450622,-1.98435 0.835705,-0.84386 0.390427,1.15632 3.908738,4.20348 5.909071,5.11776 4.032169,1.84295 9.048505,0.87995 13.370659,-2.5668 2.117367,-1.68852 3.095093,-1.9327 3.095093,-0.77298 0,0.31395 0.12892,0.70406 0.2865,0.86692 0.15757,0.16285 0.46449,0.98606 0.68205,1.82934 0.37088,1.43756 1.60654,3.79902 2.54113,4.85631 0.2273,0.25714 0.66229,1.37921 0.96663,2.49348 0.94526,3.46075 1.47589,3.638 6.97076,2.32843 2.2461,-0.5353 3.68078,-1.06947 4.46872,-1.66383 2.02458,-1.52719 4.31116,-4.46488 5.85455,-7.52168 2.38797,-4.72954 3.52463,-6.48733 4.22136,-6.52815 0.4805,-0.0281 -0.0822,3.32612 -0.98552,5.87468 -2.55687,7.21381 -9.40049,13.32605 -17.61671,15.734 -5.04777,1.47936 -7.9827,1.70512 -12.398188,0.95369 z"
         id="path29"
         inkscape:connector-curvature="0" />
      <path
         style="fill:#5968a4;stroke-width:0.32147837"
         d="m 94.504223,178.39051 c -1.983919,-0.36585 -2.3675,-0.78677 -1.155403,-1.26787 1.472854,-0.5846 11.78958,-0.56075 12.54586,0.029 0.5267,0.41073 0.45505,0.49361 -0.86064,0.99556 -1.58692,0.60544 -7.788932,0.74874 -10.529817,0.2433 z m -0.317894,-3.57091 c -6.223011,-1.26907 -10.633644,-3.55093 -14.832962,-7.6739 -3.550723,-3.48617 -5.6222,-7.0613 -6.768127,-11.68102 -0.662325,-2.67011 -0.816662,-6.85027 -0.320584,-8.68286 l 0.253118,-0.93506 0.04143,0.93506 c 0.0848,1.914 1.352487,7.84867 2.020691,9.45988 1.466289,3.53559 4.152805,7.70536 5.934905,9.21163 0.989177,0.83607 0.885595,0.47278 -0.595598,-2.08894 -1.513675,-2.6179 -2.680862,-5.99496 -2.680862,-7.75663 v -1.23817 l 2.238157,2.15503 c 2.793626,2.68986 5.160069,3.8388 8.348339,4.05324 1.249244,0.084 3.01712,-0.0154 3.928614,-0.22096 l 1.657258,-0.37371 1.47487,1.34729 c 0.811181,0.74101 2.133647,1.76807 2.938817,2.28235 0.80517,0.51428 1.613155,1.08365 1.795524,1.26526 2.052031,2.0435 2.545631,2.6338 2.621861,3.13545 0.13226,0.87036 2.27934,1.43921 4.83867,1.28195 1.18539,-0.0728 2.45368,-0.23554 2.81842,-0.36158 0.61939,-0.21403 0.62486,-0.1995 0.0829,0.22026 -1.65024,1.27811 0.34936,1.1104 2.92898,-0.24566 2.2305,-1.17252 5.50095,-4.04428 7.11119,-6.24426 0.54437,-0.74375 1.58869,-2.51647 2.32071,-3.93938 1.15325,-2.24171 3.02525,-4.36309 3.47614,-3.93925 0.25278,0.23761 -0.80503,3.91871 -1.62991,5.67202 -2.44368,5.19406 -7.61705,9.95954 -13.61339,12.54006 -4.81956,2.07408 -11.507077,2.8175 -16.389152,1.8219 z M 72.619857,144.82064 c -0.07109,-1.21203 1.192106,-5.58892 2.355862,-8.16292 1.317472,-2.91399 3.721625,-7.36418 4.286616,-7.93471 0.15944,-0.161 -0.306843,0.97841 -1.036188,2.53203 -1.732934,3.69141 -4.223675,9.74046 -4.981546,12.09824 -0.330617,1.02856 -0.611749,1.68887 -0.624744,1.46736 z M 98.790972,90.392237 c 0,-0.744361 0.384483,-1.434131 0.697901,-1.252048 0.50774,0.294972 0.342123,1.694085 -0.200532,1.694085 -0.273553,0 -0.497369,-0.198917 -0.497369,-0.442037 z"
         id="path27"
         inkscape:connector-curvature="0" />
      <path
         style="fill:#225298;stroke-width:0.32147837"
         d="m 98.166563,177.82363 c -0.676594,-0.4028 1.382564,-0.76358 2.865547,-0.50206 0.88599,0.15624 1.07201,0.28356 0.72013,0.49287 -0.60605,0.36051 -2.985307,0.36661 -3.585677,0.009 z m -5.131907,-3.48134 c -11.233739,-2.59441 -19.485463,-11.27254 -20.687108,-21.75612 -0.215391,-1.87911 0.47363,-1.41436 0.76284,0.51454 0.121491,0.81028 0.395488,1.75376 0.608882,2.09661 0.213398,0.34286 0.747707,1.46493 1.187354,2.49349 1.302383,3.04694 2.979274,5.47415 5.370754,7.77386 1.237419,1.18993 2.336142,2.0824 2.441604,1.98327 0.105466,-0.0991 -0.553962,-1.25404 -1.465396,-2.56645 -0.911431,-1.31241 -1.974994,-3.18475 -2.363472,-4.16076 -0.827345,-2.07861 -1.334903,-4.38717 -1.006501,-4.57796 0.126713,-0.0736 1.040531,0.50413 2.030716,1.28388 0.990181,0.77974 2.770196,1.85946 3.955591,2.39937 2.01654,0.91846 2.389603,0.98164 5.796036,0.98164 h 3.640777 l 1.555841,2.1818 c 3.28351,4.60455 6.000846,6.37962 10.158326,6.63583 1.45466,0.0896 2.37123,0.27734 2.30239,0.47148 -0.38806,1.09432 -6.69935,1.78008 -10.85337,1.17928 -1.367764,-0.19782 -4.202764,-0.91006 -6.3,-1.58276 -4.017726,-1.2887 -4.084808,-0.96425 -0.16579,0.80185 4.282687,1.92998 10.43266,2.93618 14.11247,2.30894 2.91026,-0.49607 9.13658,-3.17783 11.44856,-4.93104 1.05532,-0.80027 2.8622,-2.64724 4.01528,-4.10437 2.89821,-3.66241 4.13539,-4.92591 4.32657,-4.41862 0.46154,1.22464 -2.3005,5.40051 -5.5842,8.44266 -6.41789,5.94577 -16.54527,8.56874 -25.288154,6.54958 z M 73.789372,140.08058 c 0.279899,-1.48747 2.093703,-5.56754 3.775779,-8.49343 0.763779,-1.32856 1.431019,-2.41556 1.482758,-2.41556 0.153508,0 -3.727186,8.74937 -4.631206,10.44146 -0.779436,1.45891 -0.819497,1.48876 -0.627331,0.46753 z"
         id="path25"
         inkscape:connector-curvature="0" />
      <path
         style="fill:#11307d;stroke-width:0.32147837"
         d="m 95.87071,174.67017 c -6.650721,-0.85963 -12.816853,-4.02848 -17.303086,-8.89228 -2.18491,-2.36879 -4.575528,-6.53372 -4.842701,-8.43694 -0.148699,-1.05928 0.0081,-0.87841 1.2696,1.4643 1.809545,3.36055 3.261881,5.22333 5.996098,7.69067 3.082586,2.78171 3.920761,2.61052 1.591575,-0.32506 -1.187129,-1.49619 -2.359645,-3.3791 -2.359645,-3.78929 0,-0.409 0.752519,-0.11359 1.425044,0.55941 0.401621,0.40191 1.129049,0.82264 1.616507,0.93497 0.487457,0.11233 1.308115,0.52589 1.823684,0.91903 1.552953,1.18419 8.66943,3.02561 11.692982,3.02561 0.604933,0 2.030139,0.43049 3.167123,0.95664 1.341109,0.62061 2.869509,1.03826 4.351219,1.18899 l 2.28397,0.23235 -1.97797,0.5669 c -4.92222,1.41075 -14.855178,-0.67552 -19.687268,-4.13502 -2.447759,-1.75246 -2.149918,-0.37307 0.357299,1.65476 3.13051,2.53194 9.339051,4.61229 15.007939,5.02884 3.45904,0.25416 5.82227,-0.30593 10.77631,-2.55405 3.66413,-1.66276 3.95863,-1.87208 7.53516,-5.35563 3.73573,-3.63862 4.97439,-4.35724 3.23322,-1.8758 -2.62453,3.7404 -6.12706,6.61356 -10.55616,8.65932 -4.64134,2.1438 -10.59522,3.10343 -15.4009,2.48228 z"
         id="path23"
         inkscape:connector-curvature="0" />
    </g>
  </g>
</svg>
