<?xml version="1.0" encoding="UTF-8" standalone="no"?>
<!-- Created with Inkscape (http://www.inkscape.org/) -->

<svg
   xmlns:dc="http://purl.org/dc/elements/1.1/"
   xmlns:cc="http://creativecommons.org/ns#"
   xmlns:rdf="http://www.w3.org/1999/02/22-rdf-syntax-ns#"
   xmlns:svg="http://www.w3.org/2000/svg"
   xmlns="http://www.w3.org/2000/svg"
   xmlns:sodipodi="http://sodipodi.sourceforge.net/DTD/sodipodi-0.dtd"
   xmlns:inkscape="http://www.inkscape.org/namespaces/inkscape"
   width="210mm"
   height="297mm"
   viewBox="0 0 210 297"
   version="1.1"
   id="svg8"
   inkscape:version="0.92.5 (2060ec1f9f, 2020-04-08)"
   sodipodi:docname="monsieur goutte.svg">
  <defs
     id="defs2" />
  <sodipodi:namedview
     id="base"
     pagecolor="#ffffff"
     bordercolor="#666666"
     borderopacity="1.0"
     inkscape:pageopacity="0.0"
     inkscape:pageshadow="2"
     inkscape:zoom="0.35"
     inkscape:cx="-121.42857"
     inkscape:cy="560"
     inkscape:document-units="mm"
     inkscape:current-layer="layer1"
     showgrid="false"
     inkscape:window-width="1600"
     inkscape:window-height="837"
     inkscape:window-x="-8"
     inkscape:window-y="-8"
     inkscape:window-maximized="1" />
  <metadata
     id="metadata5">
    <rdf:RDF>
      <cc:Work
         rdf:about="">
        <dc:format>image/svg+xml</dc:format>
        <dc:type
           rdf:resource="http://purl.org/dc/dcmitype/StillImage" />
        <dc:title></dc:title>
      </cc:Work>
    </rdf:RDF>
  </metadata>
  <g
     inkscape:label="Calque 1"
     inkscape:groupmode="layer"
     id="layer1">
    <path
       style="fill:#000000;stroke-width:2.5442512"
       d="M 20.165031,142.02975 V 39.579311 h 77.35283 77.352829 V 142.02975 244.4802 H 97.517861 20.165031 Z m 45.71129,79.359 c 21.9228,-28.92423 28.17481,-50.27556 17.40774,-59.44941 -5.82488,-4.96296 -12.93196,-3.65814 -19.97314,3.66698 -3.68724,3.83593 -5.19622,11.27877 -6.77369,33.41032 -1.11629,15.66122 -2.75646,30.63102 -3.64483,33.26622 -2.77737,8.23865 0.68316,5.3351 12.98392,-10.89411 z m 77.462669,-9.59568 c -2.66822,-26.5521 -6.51846,-37.33848 -16.38315,-45.897 -8.48476,-7.3613 -17.79495,-6.29511 -22.28453,2.55199 -4.741659,9.34386 -1.99081,16.78183 11.83183,31.99187 6.58862,7.24993 15.47449,18.51414 19.74636,25.03158 4.27188,6.51744 8.15509,11.48455 8.62936,11.03804 0.47427,-0.44652 -0.21866,-11.56894 -1.53987,-24.71648 z M 110.3428,142.44741 c 2.3204,-6.43461 4.2189,-15.65497 4.2189,-20.48969 0,-10.15368 -6.88558,-22.504164 -13.67799,-24.533834 -6.076339,-1.8157 -5.913139,-4.087656 0.56734,-7.897951 6.27213,-3.687787 6.87523,-13.506097 1.10652,-18.013539 -2.27576,-1.778186 -7.015469,-8.579662 -10.532689,-15.11439 -3.51722,-6.534728 -6.94517,-11.881324 -7.61767,-11.881324 -3.33683,0 -14.42171,25.641312 -14.42171,33.360005 0,7.129894 1.44689,9.619095 7.48898,12.883855 l 7.48899,4.046567 -7.48899,5.932811 c -10.03632,7.9508 -9.68223,16.32892 1.58,37.384 4.98793,9.32511 10.51121,22.34723 12.27396,28.93805 l 3.20498,11.98331 5.795239,-12.44929 c 3.18739,-6.84711 7.69375,-17.71397 10.01414,-24.14858 z m -46.580969,2.07345 c 8.06878,-4.97749 8.78601,-19.54146 1.15179,-23.38808 -10.43667,-5.25868 -15.54322,-3.06386 -22.36645,9.61318 -3.6023,6.6928 -7.75203,12.86835 -9.22163,13.72346 -1.4696,0.85511 -2.67199,2.75483 -2.67199,4.2216 0,3.80943 25.34861,0.61663 33.10828,-4.17016 z M 148.3416,106.23382 c 8.45113,-5.43111 16.93348,-9.874744 18.84968,-9.874744 2.23459,0 2.57802,-0.85296 0.95767,-2.37849 -3.41089,-3.211288 -30.55002,-6.049632 -38.92407,-4.070872 -3.70175,0.87471 -8.65102,4.350016 -10.99838,7.722902 -3.94441,5.667654 -3.94234,6.600364 0.0273,12.304224 5.94167,8.53748 12.24873,7.76125 30.08782,-3.70302 z"
       id="path21"
       inkscape:connector-curvature="0"
       inkscape:export-xdpi="96"
       inkscape:export-ydpi="96" />
  </g>
</svg>
